<?xml version="1.0" encoding="UTF-8"?>
<svg id="Layer_1" data-name="Layer 1" xmlns="http://www.w3.org/2000/svg" viewBox="0 0 6380.14 800.28">
  <defs>
    <style>
      .cls-1, .cls-2 {
        fill: #585858;
      }

      .cls-3 {
        fill: #e58d23;
      }

      .cls-4, .cls-5 {
        fill: #fff;
      }

      .cls-6, .cls-7 {
        font-size: 90.88px;
      }

      .cls-6, .cls-8 {
        fill: #e88400;
        font-family: DBAdmanX-Bold, 'DB Adman X';
        font-weight: 700;
      }

      .cls-9, .cls-10 {
        fill: none;
      }

      .cls-10, .cls-5 {
        stroke: #585858;
        stroke-linejoin: bevel;
        stroke-width: 2px;
      }

      .cls-11 {
        font-size: 60.48px;
      }

      .cls-12 {
        opacity: .5;
      }

      .cls-2 {
        font-family: DBAdmanX, 'DB Adman X';
        font-size: 45px;
      }
    </style>
  </defs>
  <text class="cls-6" transform="translate(1938.15 221.1)"><tspan x="0" y="0">บริเวณภายใน</tspan><tspan x="0" y="77">ช่องบันได</tspan></text>
  <text class="cls-2" transform="translate(1938.42 374.42)"><tspan x="0" y="0">สามารถติดตั้งลิฟต์ภายใน</tspan><tspan x="0" y="47">ช่องบันได</tspan></text>
  <path class="cls-5" d="M1505.55,85.82v.02l-186.44,111.75v191.4h.02s-.02.02-.02.02v256.74l372.87,112.87,186.44-111.75V197.59l-372.87-111.77Z"/>
  <polyline class="cls-5" points="1335.77 400.89 1335.77 209.02 1511.1 103.92"/>
  <polyline class="cls-10" points="1511.1 525.56 1335.77 630.66 1335.77 400.89"/>
  <polygon class="cls-10" points="1686.43 736.81 1335.77 630.66 1511.1 525.56 1861.77 631.71 1686.43 736.81"/>
  <g>
    <g>
      <polygon class="cls-4" points="1643.47 421.85 1643.47 611.49 1576.47 462.41 1643.47 421.85"/>
      <polygon class="cls-4" points="1576.47 462.41 1643.47 611.49 1576.47 652.05 1576.47 591.4 1576.47 462.41"/>
      <path class="cls-4" d="M1643.47,421.85l-67,40.55-133.98-40.55,66.99-40.16,133.99,40.16ZM1566.11,449.92l46.26-28.01-92.51-27.72-46.26,27.72,92.51,28.01Z"/>
      <polygon class="cls-4" points="1612.36 421.91 1566.11 449.92 1473.59 421.91 1519.85 394.19 1612.36 421.91"/>
      <polygon class="cls-4" points="1576.47 591.4 1576.47 652.05 1541.34 641.41 1541.34 580.87 1541.34 492.23 1477.63 472.95 1477.63 590.43 1477.63 622.13 1442.49 611.49 1442.49 421.85 1576.47 462.41 1576.47 591.4"/>
      <polygon class="cls-3" points="1541.34 641.41 1541.34 641.51 1477.63 622.22 1477.63 622.13 1477.63 590.43 1477.63 472.95 1541.34 492.23 1541.34 580.87 1541.34 641.41"/>
    </g>
    <g>
      <line class="cls-10" x1="1541.34" y1="641.41" x2="1576.47" y2="652.05"/>
      <line class="cls-10" x1="1442.49" y1="611.49" x2="1477.63" y2="622.13"/>
      <line class="cls-10" x1="1576.47" y1="652.05" x2="1643.47" y2="611.49"/>
      <line class="cls-10" x1="1576.47" y1="462.41" x2="1576.47" y2="591.4"/>
      <line class="cls-10" x1="1576.47" y1="652.05" x2="1576.47" y2="591.4"/>
      <line class="cls-10" x1="1643.47" y1="421.85" x2="1643.47" y2="611.49"/>
      <line class="cls-10" x1="1442.49" y1="421.85" x2="1442.49" y2="611.49"/>
      <polygon class="cls-10" points="1643.47 421.85 1509.48 381.7 1442.49 421.85 1576.47 462.41 1643.47 421.85"/>
      <polygon class="cls-10" points="1612.36 421.91 1519.85 394.19 1473.59 421.91 1566.11 449.92 1612.36 421.91"/>
      <polygon class="cls-10" points="1541.34 641.41 1541.34 580.87 1541.34 492.23 1477.63 472.95 1477.63 590.43 1477.63 622.13 1477.63 622.22 1541.34 641.51 1541.34 641.41"/>
    </g>
  </g>
  <polyline class="cls-10" points="1861.77 631.71 1861.77 425.95 1861.77 400.91 1861.77 209.02 1511.1 103.91 1511.1 186.22"/>
  <g>
    <g>
      <polygon class="cls-5" points="1637.25 677.79 1637.25 665.45 1637.25 663.04 1718.29 688.25 1782.36 649.46 1782.36 651.87 1782.36 664.21 1718.29 703 1637.25 677.79"/>
      <polygon class="cls-5" points="1637.25 663.04 1701.32 624.63 1782.36 649.46 1718.29 688.25 1637.25 663.04"/>
    </g>
    <g>
      <polygon class="cls-5" points="1657.1 650.9 1657.1 638.56 1657.1 636.15 1738.14 661.37 1802.21 622.58 1802.21 624.99 1802.21 637.33 1738.14 676.12 1657.1 650.9"/>
      <polygon class="cls-5" points="1657.1 636.15 1721.17 597.74 1802.21 622.58 1738.14 661.37 1657.1 636.15"/>
    </g>
    <g>
      <polygon class="cls-5" points="1676.95 624.01 1676.95 611.67 1676.95 609.26 1757.99 634.48 1822.07 595.69 1822.07 598.1 1822.07 610.44 1757.99 649.23 1676.95 624.01"/>
      <polygon class="cls-5" points="1676.95 609.26 1741.02 570.86 1822.07 595.69 1757.99 634.48 1676.95 609.26"/>
    </g>
    <g>
      <polygon class="cls-5" points="1696.8 597.13 1696.8 584.79 1696.8 582.38 1777.84 607.59 1841.92 568.8 1841.92 571.21 1841.92 583.55 1777.84 622.34 1696.8 597.13"/>
      <polygon class="cls-5" points="1696.8 582.38 1760.87 543.97 1841.92 568.8 1777.84 607.59 1696.8 582.38"/>
    </g>
    <g>
      <polygon class="cls-5" points="1716.65 570.24 1716.65 557.9 1716.65 555.49 1797.7 580.71 1861.77 541.91 1861.77 544.33 1861.77 556.66 1797.7 595.46 1716.65 570.24"/>
      <polygon class="cls-5" points="1716.65 555.49 1780.73 517.08 1861.77 541.91 1797.7 580.71 1716.65 555.49"/>
    </g>
    <g>
      <polygon class="cls-5" points="1635.96 529.48 1635.96 517.14 1635.96 514.73 1717 539.94 1781.07 501.15 1781.07 503.56 1781.07 515.9 1717 554.69 1635.96 529.48"/>
      <polygon class="cls-5" points="1635.96 514.73 1700.03 476.32 1781.07 501.15 1717 539.94 1635.96 514.73"/>
    </g>
    <g>
      <polygon class="cls-5" points="1614.28 506.86 1614.28 494.52 1614.28 492.11 1695.32 517.33 1759.39 478.54 1759.39 480.95 1759.39 493.29 1695.32 532.08 1614.28 506.86"/>
      <polygon class="cls-5" points="1614.28 492.11 1678.35 453.7 1759.39 478.54 1695.32 517.33 1614.28 492.11"/>
    </g>
    <g>
      <polygon class="cls-5" points="1592.6 484.24 1592.6 471.9 1592.6 469.49 1673.64 494.71 1737.71 455.92 1737.71 458.33 1737.71 470.67 1673.64 509.46 1592.6 484.24"/>
      <polygon class="cls-5" points="1592.6 469.49 1656.67 431.09 1737.71 455.92 1673.64 494.71 1592.6 469.49"/>
    </g>
    <g>
      <polygon class="cls-5" points="1570.91 461.63 1570.91 449.29 1570.91 446.87 1651.96 472.09 1716.03 433.3 1716.03 435.71 1716.03 448.05 1651.96 486.84 1570.91 461.63"/>
      <polygon class="cls-5" points="1570.91 446.87 1634.99 408.47 1716.03 433.3 1651.96 472.09 1570.91 446.87"/>
    </g>
  </g>
  <polygon class="cls-5" points="1335.77 486.62 1335.77 475.48 1335.77 471.5 1547.3 535.53 1653.07 471.5 1653.07 475.48 1653.07 486.62 1547.3 550.65 1335.77 486.62"/>
  <polygon class="cls-5" points="1335.77 471.5 1441.54 408.1 1653.07 471.5 1547.3 535.53 1335.77 471.5"/>
  <g>
    <g>
      <g>
        <polygon class="cls-4" points="1572.01 264.24 1636.77 408.36 1572.01 447.57 1572.01 388.94 1572.01 264.24"/>
        <polygon class="cls-4" points="1572.01 388.94 1572.01 447.57 1538.04 437.28 1538.04 378.76 1538.04 293.07 1476.46 274.43 1476.46 388 1476.46 418.64 1442.49 408.36 1442.49 225.04 1572.01 264.24 1572.01 388.94"/>
        <polygon class="cls-4" points="1636.77 225.04 1636.77 408.36 1572.01 264.24 1636.77 225.04"/>
        <path class="cls-4" d="M1636.77,225.04l-64.77,39.2-129.52-39.2,64.76-38.82,129.53,38.82ZM1561.99,252.18l44.71-27.08-89.43-26.8-44.71,26.8,89.43,27.08Z"/>
        <polygon class="cls-4" points="1606.7 225.1 1561.99 252.18 1472.56 225.1 1517.27 198.3 1606.7 225.1"/>
        <polygon class="cls-4" points="1538.04 437.28 1538.04 437.38 1476.46 418.74 1476.46 418.64 1476.46 388 1476.46 274.43 1538.04 293.07 1538.04 378.76 1538.04 437.28"/>
      </g>
      <g>
        <line class="cls-10" x1="1538.04" y1="437.28" x2="1572.01" y2="447.57"/>
        <line class="cls-10" x1="1442.49" y1="408.36" x2="1476.46" y2="418.64"/>
        <line class="cls-10" x1="1572.01" y1="447.57" x2="1636.77" y2="408.36"/>
        <line class="cls-10" x1="1572.01" y1="264.24" x2="1572.01" y2="388.94"/>
        <line class="cls-10" x1="1572.01" y1="447.57" x2="1572.01" y2="388.94"/>
        <line class="cls-10" x1="1636.77" y1="225.04" x2="1636.77" y2="408.36"/>
        <line class="cls-10" x1="1442.49" y1="225.04" x2="1442.49" y2="408.36"/>
        <polygon class="cls-10" points="1636.77 225.04 1507.25 186.22 1442.49 225.04 1572.01 264.24 1636.77 225.04"/>
        <polygon class="cls-10" points="1538.04 293.07 1476.46 274.43 1476.46 388 1476.46 418.64 1476.46 418.74 1538.04 437.38 1538.04 437.28 1538.04 378.76 1538.04 293.07"/>
      </g>
    </g>
    <polygon class="cls-3" points="1503.57 454.63 1491.28 437.38 1476.46 418.74 1476.46 418.64 1476.46 388 1476.46 274.43 1503.57 310.42 1503.57 396.11 1503.57 454.63"/>
  </g>
  <g>
    <path class="cls-5" d="M316.72,63.74v.02l-186.44,111.75v191.4h.02s-.02.02-.02.02v256.74l372.87,112.87,186.44-111.75V175.51L316.72,63.74Z"/>
    <polygon class="cls-5" points="672.94 378.83 322.27 273.71 322.27 81.83 672.94 186.94 672.94 378.83"/>
    <polygon class="cls-5" points="322.27 273.71 146.94 378.81 146.94 186.94 322.27 81.85 322.27 273.71"/>
    <polygon class="cls-10" points="322.27 503.48 146.94 608.58 146.94 378.81 322.27 273.71 322.27 503.48"/>
    <polygon class="cls-10" points="497.61 714.73 146.94 608.58 322.27 503.48 672.94 609.63 497.61 714.73"/>
    <line class="cls-10" x1="672.94" y1="403.88" x2="672.94" y2="609.63"/>
  </g>
  <text class="cls-8" transform="translate(749.41 238.64)"><tspan class="cls-7"><tspan x="0" y="0">บ้านที่มีปล่อง</tspan></tspan><tspan class="cls-11"><tspan x="0" y="62">ช่องสำหรับลิฟต์</tspan></tspan></text>
  <text class="cls-2" transform="translate(749.59 374.42)"><tspan x="0" y="0">สามารถติดตั้งลิฟต์ภายใน</tspan><tspan x="0" y="47">ปล่อง/ช่องที่เตรียมไว้สำหรับ</tspan><tspan x="0" y="94">ลิฟต์โดยเฉพาะ</tspan></text>
  <g>
    <g>
      <polygon class="cls-4" points="550.34 388.48 550.34 580.63 482.45 429.57 550.34 388.48"/>
      <polygon class="cls-4" points="482.45 429.57 550.34 580.63 482.45 621.73 482.45 560.28 482.45 429.57"/>
      <path class="cls-4" d="M550.34,388.48l-67.89,41.09-135.76-41.09,67.88-40.69,135.77,40.69ZM471.95,416.92l46.87-28.38-93.74-28.09-46.87,28.09,93.74,28.38Z"/>
      <polygon class="cls-4" points="518.82 388.54 471.95 416.92 378.21 388.54 425.08 360.45 518.82 388.54"/>
      <polygon class="cls-4" points="482.45 560.28 482.45 621.73 446.85 610.95 446.85 549.61 446.85 459.79 382.3 440.25 382.3 559.29 382.3 591.41 346.69 580.63 346.69 388.48 482.45 429.57 482.45 560.28"/>
      <polygon class="cls-3" points="446.85 610.95 446.85 611.05 382.3 591.51 382.3 591.41 382.3 559.29 382.3 440.25 446.85 459.79 446.85 549.61 446.85 610.95"/>
    </g>
    <g>
      <line class="cls-10" x1="446.85" y1="610.95" x2="482.45" y2="621.73"/>
      <line class="cls-10" x1="346.69" y1="580.63" x2="382.3" y2="591.41"/>
      <line class="cls-10" x1="482.45" y1="621.73" x2="550.34" y2="580.63"/>
      <line class="cls-10" x1="482.45" y1="429.57" x2="482.45" y2="560.28"/>
      <line class="cls-10" x1="482.45" y1="621.73" x2="482.45" y2="560.28"/>
      <line class="cls-10" x1="550.34" y1="388.48" x2="550.34" y2="580.63"/>
      <line class="cls-10" x1="346.69" y1="388.48" x2="346.69" y2="580.63"/>
      <polygon class="cls-10" points="550.34 388.48 414.57 347.79 346.69 388.48 482.45 429.57 550.34 388.48"/>
      <polygon class="cls-10" points="518.82 388.54 425.08 360.45 378.21 388.54 471.95 416.92 518.82 388.54"/>
      <polygon class="cls-10" points="446.85 610.95 446.85 549.61 446.85 459.79 382.3 440.25 382.3 559.29 382.3 591.41 382.3 591.51 446.85 611.05 446.85 610.95"/>
    </g>
  </g>
  <g>
    <polygon class="cls-5" points="146.94 403.88 146.94 385.41 146.94 378.81 497.61 484.96 672.94 378.81 672.94 385.41 672.94 403.88 497.61 510.03 146.94 403.88"/>
    <polygon class="cls-5" points="146.94 378.81 322.27 273.71 672.94 378.81 497.61 484.96 146.94 378.81"/>
  </g>
  <g>
    <g>
      <g>
        <polygon class="cls-4" points="482.45 191.29 550.34 342.35 482.45 383.45 482.45 322 482.45 191.29"/>
        <polygon class="cls-4" points="482.45 322 482.45 383.45 446.85 372.67 446.85 311.33 446.85 221.51 382.3 201.97 382.3 321.01 382.3 353.13 346.69 342.35 346.69 150.2 482.45 191.29 482.45 322"/>
        <polygon class="cls-4" points="550.34 150.2 550.34 342.35 482.45 191.29 550.34 150.2"/>
        <path class="cls-4" d="M550.34,150.2l-67.89,41.09-135.76-41.09,67.88-40.69,135.77,40.69ZM471.95,178.64l46.87-28.38-93.74-28.09-46.87,28.09,93.74,28.38Z"/>
        <polygon class="cls-4" points="518.82 150.26 471.95 178.64 378.21 150.26 425.08 122.17 518.82 150.26"/>
        <polygon class="cls-4" points="446.85 372.67 446.85 372.77 382.3 353.23 382.3 353.13 382.3 321.01 382.3 201.97 446.85 221.51 446.85 311.33 446.85 372.67"/>
      </g>
      <g>
        <line class="cls-10" x1="446.85" y1="372.67" x2="482.45" y2="383.45"/>
        <line class="cls-10" x1="346.69" y1="342.35" x2="382.3" y2="353.13"/>
        <line class="cls-10" x1="482.45" y1="383.45" x2="550.34" y2="342.35"/>
        <line class="cls-10" x1="482.45" y1="191.29" x2="482.45" y2="322"/>
        <line class="cls-10" x1="482.45" y1="383.45" x2="482.45" y2="322"/>
        <line class="cls-10" x1="550.34" y1="150.2" x2="550.34" y2="342.35"/>
        <line class="cls-10" x1="346.69" y1="150.2" x2="346.69" y2="342.35"/>
        <polygon class="cls-10" points="550.34 150.2 414.57 109.51 346.69 150.2 482.45 191.29 550.34 150.2"/>
        <polygon class="cls-10" points="446.85 221.51 382.3 201.97 382.3 321.01 382.3 353.13 382.3 353.23 446.85 372.77 446.85 372.67 446.85 311.33 446.85 221.51"/>
      </g>
    </g>
    <polygon class="cls-3" points="410.72 390.86 397.83 372.77 382.3 353.23 382.3 353.13 382.3 321.01 382.3 201.97 410.72 239.7 410.72 329.52 410.72 390.86"/>
  </g>
  <text class="cls-6" transform="translate(3140.79 222.38)"><tspan x="0" y="0">บริเวณห้องโถง</tspan></text>
  <text class="cls-2" transform="translate(3144.24 374.42)"><tspan x="0" y="0">สามารถติดตั้งลิฟต์ภายใน</tspan><tspan x="0" y="47">บ้านบริเวณห้องโถง/ห้องที่มี</tspan><tspan x="0" y="94">พื้นที่เพียงพอสำหรับลิฟต์</tspan></text>
  <g>
    <path class="cls-5" d="M2711.37,64.49v.02l-186.44,111.75v191.4h.02s-.02.02-.02.02v256.74l372.87,112.87,186.44-111.75V176.26l-372.87-111.77Z"/>
    <polyline class="cls-10" points="3067.59 610.38 2892.26 715.48 2541.59 609.32 2541.59 187.69 2716.92 82.59"/>
    <polyline class="cls-10" points="2716.92 82.57 3067.59 187.69 3067.59 379.57 3067.59 404.62 3067.59 610.38"/>
    <g>
      <polygon class="cls-5" points="2734.42 304.47 2594.07 388.62 2594.07 317.19 2734.42 233.04 2734.42 304.47"/>
      <polygon class="cls-5" points="3015.11 318.61 2734.42 233.04 2734.42 304.47 3015.11 390.04 3015.11 318.61"/>
    </g>
    <polygon class="cls-5" points="2541.59 369.95 2594.07 388.62 2594.07 317.19 2541.59 298.52 2541.59 369.95"/>
    <polygon class="cls-5" points="3067.59 359.82 3015.11 390.04 3015.11 318.61 3067.59 288.39 3067.59 359.82"/>
    <polygon class="cls-5" points="3067.59 346.79 3015.11 377.02 3015.11 305.59 3067.59 275.37 3067.59 346.79"/>
    <g>
      <polygon class="cls-5" points="2734.42 291.45 2594.07 375.59 2594.07 304.17 2734.42 220.02 2734.42 291.45"/>
      <polygon class="cls-5" points="3015.11 305.59 2734.42 220.02 2734.42 291.45 3015.11 377.02 3015.11 305.59"/>
    </g>
    <polygon class="cls-5" points="2541.59 356.93 2594.07 375.59 2594.07 304.17 2541.59 285.5 2541.59 356.93"/>
    <polygon class="cls-10" points="2892.23 714.95 2541.57 608.8 2716.9 503.7 3067.57 609.85 2892.23 714.95"/>
    <line class="cls-10" x1="2716.9" y1="503.7" x2="2716.9" y2="314.96"/>
  </g>
  <g>
    <g>
      <g>
        <polygon class="cls-4" points="2836.56 371.44 2904.45 560.41 2836.56 601.51 2836.56 540.06 2836.56 371.44"/>
        <polygon class="cls-4" points="2836.56 540.06 2836.56 601.51 2800.96 590.73 2800.96 529.39 2800.96 439.57 2736.41 420.03 2736.41 539.07 2736.41 571.19 2700.8 560.41 2700.8 330.35 2836.56 371.44 2836.56 540.06"/>
        <polygon class="cls-4" points="2904.45 330.35 2904.45 560.41 2836.56 371.44 2904.45 330.35"/>
        <path class="cls-4" d="M2904.45,330.35l-67.89,41.09-135.76-41.09,67.88-40.69,135.77,40.69ZM2826.06,358.79l46.87-28.38-93.74-28.09-46.87,28.09,93.74,28.38Z"/>
        <polygon class="cls-4" points="2872.93 330.41 2826.06 358.79 2732.32 330.41 2779.19 302.32 2872.93 330.41"/>
        <polygon class="cls-4" points="2800.96 590.73 2800.96 590.83 2736.41 571.29 2736.41 571.19 2736.41 539.07 2736.41 420.03 2800.96 439.57 2800.96 529.39 2800.96 590.73"/>
      </g>
      <g>
        <line class="cls-10" x1="2800.96" y1="590.73" x2="2836.56" y2="601.51"/>
        <line class="cls-10" x1="2700.8" y1="560.41" x2="2736.41" y2="571.19"/>
        <line class="cls-10" x1="2836.56" y1="601.51" x2="2904.45" y2="560.41"/>
        <line class="cls-10" x1="2836.56" y1="371.44" x2="2836.56" y2="540.06"/>
        <line class="cls-10" x1="2836.56" y1="601.51" x2="2836.56" y2="540.06"/>
        <line class="cls-10" x1="2904.45" y1="330.35" x2="2904.45" y2="560.41"/>
        <line class="cls-10" x1="2700.8" y1="330.35" x2="2700.8" y2="560.41"/>
        <polygon class="cls-10" points="2904.45 330.35 2768.68 289.66 2700.8 330.35 2836.56 371.44 2904.45 330.35"/>
        <polyline class="cls-10" points="2700.8 369.59 2836.56 410.68 2904.45 369.59"/>
        <polygon class="cls-10" points="2800.96 439.57 2736.41 420.03 2736.41 539.07 2736.41 571.19 2736.41 571.29 2800.96 590.83 2800.96 590.73 2800.96 529.39 2800.96 439.57"/>
      </g>
    </g>
    <polygon class="cls-3" points="2764.83 608.92 2751.94 590.83 2736.41 571.29 2736.41 571.19 2736.41 539.07 2736.41 420.03 2764.83 457.76 2764.83 547.58 2764.83 608.92"/>
  </g>
  <g>
    <g>
      <polygon class="cls-4" points="2904.45 139.14 2904.45 331.29 2836.56 180.23 2904.45 139.14"/>
      <polygon class="cls-4" points="2836.56 180.23 2904.45 331.29 2836.56 372.39 2836.56 310.94 2836.56 180.23"/>
      <path class="cls-4" d="M2904.45,139.14l-67.89,41.09-135.76-41.09,67.88-40.69,135.77,40.69ZM2826.06,167.58l46.87-28.38-93.74-28.09-46.87,28.09,93.74,28.38Z"/>
      <polygon class="cls-4" points="2872.93 139.2 2826.06 167.58 2732.32 139.2 2779.19 111.11 2872.93 139.2"/>
      <polygon class="cls-4" points="2836.56 310.94 2836.56 372.39 2800.96 361.61 2800.96 300.27 2800.96 210.45 2736.41 190.91 2736.41 309.95 2736.41 342.07 2700.8 331.29 2700.8 139.14 2836.56 180.23 2836.56 310.94"/>
      <polygon class="cls-3" points="2800.96 361.61 2800.96 361.71 2736.41 342.17 2736.41 342.07 2736.41 309.95 2736.41 190.91 2800.96 210.45 2800.96 300.27 2800.96 361.61"/>
    </g>
    <g>
      <line class="cls-10" x1="2800.96" y1="361.61" x2="2836.56" y2="372.39"/>
      <line class="cls-10" x1="2700.8" y1="331.29" x2="2736.41" y2="342.07"/>
      <line class="cls-10" x1="2836.56" y1="372.39" x2="2904.45" y2="331.29"/>
      <line class="cls-10" x1="2836.56" y1="180.23" x2="2836.56" y2="310.94"/>
      <line class="cls-10" x1="2836.56" y1="372.39" x2="2836.56" y2="310.94"/>
      <line class="cls-10" x1="2904.45" y1="139.14" x2="2904.45" y2="331.29"/>
      <line class="cls-10" x1="2700.8" y1="139.14" x2="2700.8" y2="331.29"/>
      <polygon class="cls-10" points="2904.45 139.14 2768.68 98.45 2700.8 139.14 2836.56 180.23 2904.45 139.14"/>
      <polygon class="cls-10" points="2872.93 139.2 2779.19 111.11 2732.32 139.2 2826.06 167.58 2872.93 139.2"/>
      <polygon class="cls-10" points="2800.96 361.61 2800.96 300.27 2800.96 210.45 2736.41 190.91 2736.41 309.95 2736.41 342.07 2736.41 342.17 2800.96 361.71 2800.96 361.61"/>
    </g>
  </g>
  <line class="cls-10" x1="4311.97" y1="417.23" x2="4311.97" y2="622.99"/>
  <text class="cls-6" transform="translate(4385.17 239.55)"><tspan x="0" y="0">บ้านที่มีพื้นที่น้อย</tspan></text>
  <text class="cls-2" transform="translate(4388.62 374.42)"><tspan x="0" y="0">หากไม่มีพื้นที่ในบ้านที่เหมาะสม</tspan><tspan x="0" y="47">สำหรับการติดตั้งลิฟต์ สามารถ</tspan><tspan x="0" y="94">เจาะรูระหว่างชั้นเพื่อติดตั้งลิฟต์</tspan></text>
  <g>
    <path class="cls-5" d="M3955.75,77.1v.02l-186.44,111.75v191.4h.02s-.02.02-.02.02v256.74l372.87,112.87,186.44-111.75V188.87l-372.87-111.77Z"/>
    <polygon class="cls-5" points="4311.97 392.19 3961.3 287.07 3961.3 95.19 4311.97 200.3 4311.97 392.19"/>
    <polygon class="cls-5" points="3961.3 287.07 3785.97 392.17 3785.97 200.3 3961.3 95.2 3961.3 287.07"/>
    <polygon class="cls-10" points="3961.3 516.84 3785.97 621.94 3785.97 392.17 3961.3 287.07 3961.3 516.84"/>
    <polygon class="cls-10" points="4136.63 728.09 3785.97 621.94 3961.3 516.84 4311.97 622.99 4136.63 728.09"/>
    <g>
      <g>
        <line class="cls-9" x1="4123.12" y1="408.88" x2="4191.01" y2="367.79"/>
        <path class="cls-9" d="M4191.01,367.79l-67.89,41.09-135.76-41.09,67.88-40.69,135.77,40.69ZM4112.62,396.23l46.87-28.38-93.74-28.09-46.87,28.09,93.74,28.38Z"/>
      </g>
      <polyline class="cls-10" points="4177.02 363.6 4055.24 327.1 4001.4 359.38"/>
    </g>
    <line class="cls-10" x1="4055.24" y1="327.1" x2="4055.24" y2="314.44"/>
  </g>
  <g>
    <g>
      <polygon class="cls-4" points="4191.03 397.58 4191.03 589.73 4123.14 438.67 4191.03 397.58"/>
      <polygon class="cls-4" points="4123.14 438.67 4191.03 589.73 4123.14 630.83 4123.14 569.38 4123.14 438.67"/>
      <path class="cls-4" d="M4191.03,397.58l-67.89,41.09-135.76-41.09,67.88-40.69,135.77,40.69ZM4112.64,426.02l46.87-28.38-93.74-28.09-46.87,28.09,93.74,28.38Z"/>
      <polygon class="cls-4" points="4159.51 397.64 4112.64 426.02 4018.9 397.64 4065.77 369.55 4159.51 397.64"/>
      <polygon class="cls-4" points="4123.14 569.38 4123.14 630.83 4087.54 620.05 4087.54 558.71 4087.54 468.89 4022.99 449.35 4022.99 568.39 4022.99 600.51 3987.38 589.73 3987.38 397.58 4123.14 438.67 4123.14 569.38"/>
      <polygon class="cls-3" points="4087.54 620.05 4087.54 620.15 4022.99 600.61 4022.99 600.51 4022.99 568.39 4022.99 449.35 4087.54 468.89 4087.54 558.71 4087.54 620.05"/>
    </g>
    <g>
      <line class="cls-10" x1="4087.54" y1="620.05" x2="4123.14" y2="630.83"/>
      <line class="cls-10" x1="3987.38" y1="589.73" x2="4022.99" y2="600.51"/>
      <line class="cls-10" x1="4123.14" y1="630.83" x2="4191.03" y2="589.73"/>
      <line class="cls-10" x1="4123.14" y1="438.67" x2="4123.14" y2="569.38"/>
      <line class="cls-10" x1="4123.14" y1="630.83" x2="4123.14" y2="569.38"/>
      <line class="cls-10" x1="4191.03" y1="397.58" x2="4191.03" y2="589.73"/>
      <line class="cls-10" x1="3987.38" y1="397.58" x2="3987.38" y2="589.73"/>
      <polygon class="cls-10" points="4191.03 397.58 4055.26 356.89 3987.38 397.58 4123.14 438.67 4191.03 397.58"/>
      <polygon class="cls-10" points="4159.51 397.64 4065.77 369.55 4018.9 397.64 4112.64 426.02 4159.51 397.64"/>
      <polygon class="cls-10" points="4087.54 620.05 4087.54 558.71 4087.54 468.89 4022.99 449.35 4022.99 568.39 4022.99 600.51 4022.99 600.61 4087.54 620.15 4087.54 620.05"/>
    </g>
  </g>
  <polygon class="cls-5" points="3785.97 417.23 3785.97 398.77 3785.97 392.17 4136.63 498.32 4311.97 392.17 4311.97 398.77 4311.97 417.23 4136.63 523.39 3785.97 417.23"/>
  <polygon class="cls-5" points="3785.97 392.17 3961.3 287.07 4311.97 392.17 4136.63 498.32 3785.97 392.17"/>
  <g>
    <line class="cls-5" x1="4123.12" y1="396.22" x2="4191.01" y2="355.13"/>
    <path class="cls-5" d="M4191.01,355.13l-67.89,41.09-135.76-41.09,67.88-40.69,135.77,40.69ZM4112.62,383.57l46.87-28.38-93.74-28.09-46.87,28.09,93.74,28.38Z"/>
    <polygon class="cls-5" points="4159.49 355.19 4112.62 383.57 4018.88 355.19 4065.75 327.1 4159.49 355.19"/>
  </g>
  <g class="cls-12">
    <g>
      <g>
        <polygon class="cls-4" points="4123.14 203.34 4191.03 354.4 4123.14 395.5 4123.14 334.05 4123.14 203.34"/>
        <polygon class="cls-4" points="4123.14 334.05 4123.14 395.5 4087.54 384.72 4087.54 323.38 4087.54 233.56 4022.99 214.02 4022.99 333.06 4022.99 365.18 3987.38 354.4 3987.38 162.25 4123.14 203.34 4123.14 334.05"/>
        <polygon class="cls-4" points="4191.03 162.25 4191.03 354.4 4123.14 203.34 4191.03 162.25"/>
        <path class="cls-4" d="M4191.03,162.25l-67.89,41.09-135.76-41.09,67.88-40.69,135.77,40.69ZM4112.64,190.69l46.87-28.38-93.74-28.09-46.87,28.09,93.74,28.38Z"/>
        <polygon class="cls-4" points="4159.51 162.31 4112.64 190.69 4018.9 162.31 4065.77 134.22 4159.51 162.31"/>
        <polygon class="cls-4" points="4087.54 384.72 4087.54 384.82 4022.99 365.28 4022.99 365.18 4022.99 333.06 4022.99 214.02 4087.54 233.56 4087.54 323.38 4087.54 384.72"/>
      </g>
      <g>
        <line class="cls-10" x1="4087.54" y1="384.72" x2="4123.14" y2="395.5"/>
        <line class="cls-10" x1="3987.38" y1="354.4" x2="4022.99" y2="365.18"/>
        <line class="cls-10" x1="4123.14" y1="395.5" x2="4191.03" y2="354.4"/>
        <line class="cls-10" x1="4123.14" y1="203.34" x2="4123.14" y2="334.05"/>
        <line class="cls-10" x1="4123.14" y1="395.5" x2="4123.14" y2="334.05"/>
        <line class="cls-10" x1="4191.03" y1="162.25" x2="4191.03" y2="354.4"/>
        <line class="cls-10" x1="3987.38" y1="162.25" x2="3987.38" y2="354.4"/>
        <polygon class="cls-10" points="4191.03 162.25 4055.26 121.56 3987.38 162.25 4123.14 203.34 4191.03 162.25"/>
        <polygon class="cls-10" points="4087.54 233.56 4022.99 214.02 4022.99 333.06 4022.99 365.18 4022.99 365.28 4087.54 384.82 4087.54 384.72 4087.54 323.38 4087.54 233.56"/>
      </g>
    </g>
    <polygon class="cls-3" points="4051.41 402.9 4038.52 384.82 4022.99 365.28 4022.99 365.18 4022.99 333.06 4022.99 214.02 4051.41 251.74 4051.41 341.56 4051.41 402.9"/>
  </g>
  <line class="cls-5" x1="4311.97" y1="417.23" x2="4311.97" y2="622.99"/>
  <text class="cls-6" transform="translate(5720.55 239.55)"><tspan x="0" y="0">บ้านที่มีพื้นที่จำกัด</tspan></text>
  <g>
    <path class="cls-1" d="M5742.95,374.42h-3.01v-10.09c0-.44-.08-.84-.25-1.21-.17-.37-.39-.69-.68-.97s-.6-.51-.97-.69c-.36-.18-.74-.29-1.13-.35-.39-.05-.78-.04-1.17.04-.39.08-.75.24-1.08.48l-5.86,4.14v8.64h-3.01v-20.25h3.01v8.14l12.11-8.55,1.76,2.21-3.87,2.74c.63.24,1.2.55,1.71.93.51.38.94.82,1.3,1.31.36.49.64,1.04.83,1.63.19.59.29,1.22.29,1.89v9.94Z"/>
    <path class="cls-1" d="M5758.25,374.42h-2.98v-12.82c0-1.55-.38-2.75-1.15-3.6-.77-.85-1.91-1.27-3.43-1.27-.4,0-.76.03-1.1.08-.34.05-.67.14-.98.27-.32.13-.62.31-.93.54s-.62.52-.95.87l-2.07-2.07c.48-.45.96-.83,1.43-1.15.47-.32.95-.58,1.44-.79.49-.2,1-.35,1.53-.45.53-.09,1.09-.14,1.68-.14,1.3,0,2.42.2,3.36.59.94.39,1.72.92,2.34,1.59.62.67,1.07,1.45,1.37,2.34.3.89.44,1.83.44,2.82v13.18Z"/>
    <path class="cls-1" d="M5778.95,374.42h-3.01v-11.66c0-.9-.16-1.72-.48-2.46-.32-.74-.77-1.37-1.34-1.89-.57-.52-1.25-.93-2.05-1.21-.79-.29-1.66-.43-2.61-.43-.5,0-.99.06-1.47.19-.48.13-.94.31-1.38.53-.44.23-.86.49-1.24.8-.38.31-.73.64-1.04,1l1.35,1.48v13.63h-3.01v-12.65l-2.08-2.25c.48-.86,1.05-1.63,1.69-2.32.64-.69,1.34-1.28,2.1-1.77.76-.49,1.57-.86,2.42-1.13.85-.27,1.74-.4,2.65-.4,1.39,0,2.67.22,3.83.66,1.17.44,2.17,1.05,3,1.83s1.49,1.72,1.96,2.8.7,2.27.7,3.57v11.66Z"/>
    <path class="cls-1" d="M5789.88,348.27c0,.35-.05.67-.15.96-.1.29-.23.55-.38.78-.16.23-.34.44-.54.62-.21.18-.41.34-.63.48-.18.12-.37.25-.57.38-.2.13-.38.27-.54.43-.16.16-.29.33-.4.53s-.16.43-.16.69v21.28h-3.01v-21.24c0-.55.07-1.03.2-1.45.13-.42.33-.79.58-1.13.25-.33.55-.64.91-.91s.75-.53,1.19-.79c.33-.19.49-.37.49-.55,0-.15-.07-.25-.22-.29-.15-.04-.3-.06-.45-.06h-6.22v-2.83h5.9c.29,0,.58.01.89.04s.61.09.91.17c.3.08.58.2.85.34.27.14.5.33.7.56.2.23.36.51.48.83.12.33.18.71.18,1.15Z"/>
    <path class="cls-1" d="M5807.48,367.36c0,.81-.1,1.56-.3,2.24-.2.68-.47,1.29-.82,1.83-.35.55-.77,1.03-1.25,1.44-.48.41-1,.76-1.57,1.04-.56.28-1.16.49-1.78.63-.62.14-1.25.21-1.89.21-.53,0-1.06-.07-1.59-.2s-1.05-.32-1.56-.57c-.51-.25-1.01-.55-1.49-.91-.49-.35-.95-.76-1.39-1.2v2.56h-3.01v-20.25h3.01v11.74c0,.54.08,1.06.24,1.57.16.5.38.97.67,1.41.29.44.62.84,1,1.21.38.37.8.68,1.24.94.44.26.9.46,1.38.6.48.14.96.21,1.44.21.59,0,1.17-.1,1.73-.29.56-.19,1.05-.48,1.48-.86.43-.38.77-.85,1.03-1.41.26-.56.39-1.21.39-1.94v-13.18h3.01v13.18Z"/>
    <path class="cls-1" d="M5804.56,351.07v-6.79h2.92v6.75l-2.92.04Z"/>
    <path class="cls-1" d="M5827.73,367.36c0,.81-.1,1.56-.3,2.24-.2.68-.47,1.29-.82,1.83-.35.55-.77,1.03-1.25,1.44-.48.41-1,.76-1.57,1.04-.56.28-1.16.49-1.78.63s-1.25.21-1.89.21c-.53,0-1.06-.07-1.59-.2s-1.05-.32-1.56-.57c-.51-.25-1.01-.55-1.49-.91-.49-.35-.95-.76-1.39-1.2v2.56h-3.01v-20.25h3.01v11.74c0,.54.08,1.06.24,1.57.16.5.38.97.67,1.41.29.44.62.84,1.01,1.21s.8.68,1.24.94c.44.26.9.46,1.38.6.48.14.96.21,1.44.21.59,0,1.17-.1,1.73-.29.56-.19,1.05-.48,1.48-.86s.77-.85,1.03-1.41c.26-.56.39-1.21.39-1.94v-13.18h3.01v13.18Z"/>
    <path class="cls-1" d="M5811.26,351.02v-2.83h13.63v-2.7h2.83v5.54h-16.47Z"/>
    <path class="cls-1" d="M5851.4,369.02c0,.77-.15,1.49-.45,2.18-.3.68-.71,1.28-1.24,1.79-.52.51-1.14.91-1.83,1.21-.7.3-1.45.45-2.25.45-.88,0-1.68-.17-2.41-.49-.73-.33-1.35-.78-1.87-1.34-.52.56-1.14,1.01-1.86,1.34-.72.33-1.53.49-2.41.49-.8,0-1.55-.15-2.25-.45-.7-.3-1.31-.71-1.83-1.21-.52-.51-.93-1.1-1.23-1.79s-.45-1.41-.45-2.18v-14.84h2.97v14.84c0,.37.07.73.21,1.05.14.33.34.62.59.86.25.24.55.43.88.58.34.14.7.21,1.1.21s.76-.07,1.1-.21c.34-.14.63-.33.88-.58.25-.24.45-.53.59-.86.14-.33.21-.68.21-1.05v-14.84h2.97v14.84c0,.37.07.73.21,1.05.14.33.34.62.59.86s.55.43.88.58c.34.14.7.21,1.1.21s.76-.07,1.1-.21c.34-.14.63-.33.88-.58.25-.24.45-.53.59-.86s.21-.68.21-1.05v-14.84h2.98v14.84Z"/>
    <path class="cls-1" d="M5834.93,351.02v-2.83h8.91v-2.7h2.79v2.7h1.93v-2.7h2.83v5.54h-16.47Z"/>
    <path class="cls-1" d="M5843.17,343.96c.08-.12.19-.29.32-.49.14-.2.28-.42.43-.64s.31-.46.46-.69c.15-.23.29-.45.42-.65s.23-.37.31-.51.12-.23.12-.26c0-.54-.21-.81-.63-.81-.23,0-.44.09-.64.27l-1.8-1.8c.69-.63,1.49-.95,2.4-.95.48,0,.96.09,1.42.26.46.17.86.4,1.19.69.33.29.58.63.73,1.02.15.39.16.8.03,1.23l-.19.63c.07,0,.16,0,.26-.02.1-.01.24-.02.42-.02h4.77v2.75h-10.03Z"/>
    <path class="cls-1" d="M5868.63,374.42v-2.56c-.44.45-.9.85-1.39,1.2-.49.36-.99.66-1.51.91-.52.25-1.04.44-1.58.57s-1.07.2-1.59.2c-.94,0-1.87-.16-2.77-.47s-1.71-.78-2.42-1.4c-.71-.62-1.28-1.39-1.71-2.31-.43-.92-.65-1.99-.65-3.2v-13.18h3.01v13.18c0,.73.13,1.38.38,1.94.26.56.6,1.03,1.03,1.41s.92.67,1.48.86c.56.19,1.14.29,1.75.29.48,0,.97-.07,1.46-.21.49-.14.95-.33,1.39-.59.44-.25.86-.56,1.24-.91.38-.36.71-.75.99-1.19.28-.44.5-.92.67-1.43.16-.51.24-1.05.24-1.61v-11.74h3.01v20.25h-3.01Z"/>
    <path class="cls-1" d="M5891.89,374.42h-3.01v-13.23c0-.72-.13-1.35-.39-1.91s-.6-1.02-1.03-1.4c-.43-.38-.92-.66-1.48-.86-.56-.19-1.14-.29-1.73-.29-.48,0-.96.07-1.44.21-.48.14-.94.34-1.38.6-.44.26-.86.57-1.24.94s-.72.77-1.01,1.21c-.29.44-.51.91-.67,1.41-.16.5-.24,1.02-.24,1.57v11.74h-3.01v-20.25h3.01v2.6c.42-.46.87-.88,1.35-1.24.48-.37.98-.68,1.5-.93.52-.26,1.04-.45,1.58-.59.54-.14,1.07-.2,1.6-.2.64,0,1.27.07,1.89.21s1.22.35,1.78.63c.56.28,1.09.62,1.57,1.03.48.41.89.89,1.25,1.44.35.55.63,1.16.82,1.84.2.68.3,1.42.3,2.24v13.23Z"/>
    <path class="cls-1" d="M5875.42,351.02v-2.83h13.63v-2.7h2.83v5.54h-16.47Z"/>
    <path class="cls-1" d="M5889.1,343.91v-5.54h2.79v5.54h-2.79Z"/>
    <path class="cls-1" d="M5909.98,374.42v-11.66c0-.9-.16-1.72-.48-2.46-.32-.74-.77-1.37-1.34-1.89-.57-.52-1.25-.93-2.05-1.21-.79-.29-1.66-.43-2.61-.43-.5,0-.99.06-1.47.19-.48.13-.94.31-1.39.53s-.87.49-1.26.8c-.39.31-.75.64-1.06,1l1.4,1.48v13.63h-4.95v-2.92h1.93v-9.72l-2.07-2.25c.48-.86,1.04-1.63,1.68-2.32.63-.69,1.33-1.28,2.08-1.77.75-.49,1.56-.86,2.42-1.13.86-.27,1.75-.4,2.69-.4,1.39,0,2.67.22,3.83.66,1.16.44,2.17,1.05,3,1.83.84.78,1.49,1.72,1.96,2.8.46,1.08.7,2.27.7,3.57v11.66h-3.01Z"/>
    <path class="cls-1" d="M5928.3,374.42h-2.98v-12.82c0-1.55-.38-2.75-1.15-3.6-.77-.85-1.91-1.27-3.43-1.27-.39,0-.76.03-1.1.08-.34.05-.67.14-.98.27-.32.13-.62.31-.93.54-.3.23-.62.52-.95.87l-2.07-2.07c.48-.45.96-.83,1.43-1.15.47-.32.95-.58,1.44-.79.49-.2,1-.35,1.53-.45.53-.09,1.09-.14,1.68-.14,1.3,0,2.42.2,3.36.59.95.39,1.72.92,2.34,1.59.62.67,1.07,1.45,1.37,2.34.3.89.44,1.83.44,2.82v13.18Z"/>
    <path class="cls-1" d="M5948.33,366.55c0,.75-.1,1.48-.3,2.17-.2.69-.48,1.34-.85,1.94-.37.6-.8,1.15-1.31,1.65-.51.49-1.08.92-1.7,1.27-.62.35-1.29.63-2.02.82-.72.19-1.47.29-2.25.29-.73,0-1.44-.09-2.12-.26-.69-.18-1.33-.43-1.93-.76-.61-.33-1.16-.73-1.67-1.2s-.95-.99-1.33-1.58c-.38-.58-.69-1.22-.92-1.9-.24-.68-.38-1.41-.44-2.18l3.01-3.02c-.4-.36-.76-.71-1.1-1.04s-.63-.69-.88-1.07c-.25-.37-.45-.78-.59-1.22-.14-.44-.21-.95-.21-1.52,0-.69.13-1.34.4-1.95.27-.61.64-1.15,1.1-1.6.47-.46,1.02-.82,1.65-1.09.63-.27,1.3-.4,2.02-.4.35,0,.7.03,1.03.1.34.07.68.18,1.02.34.34.16.7.36,1.05.62.36.25.74.56,1.13.92l-2.16,2.08c-.26-.23-.48-.41-.68-.56-.2-.15-.38-.26-.54-.35-.16-.08-.32-.14-.46-.18-.14-.03-.29-.05-.43-.05-.3,0-.58.05-.85.16-.26.11-.49.25-.69.44-.19.19-.35.41-.46.67-.11.26-.17.54-.17.85,0,.57.25,1.11.76,1.61l3.28,3.28-4.04,4.05c.15.57.38,1.1.71,1.58.33.48.72.89,1.18,1.24.46.35.97.62,1.54.81s1.17.29,1.8.29c.75,0,1.46-.14,2.12-.42.66-.28,1.23-.66,1.71-1.13.49-.48.87-1.03,1.15-1.68.28-.64.42-1.32.42-2.04v-12.37h3.02v12.37Z"/>
    <path class="cls-1" d="M5958.72,350.03c0,.73-.14,1.4-.42,2.03-.28.63-.65,1.17-1.1,1.62l-1.44,1.44v19.3h-3.01v-20.52c.12-.12.27-.26.47-.43.19-.17.4-.36.62-.57.22-.2.44-.42.66-.66.22-.23.43-.48.6-.72.18-.25.33-.5.44-.75.11-.25.17-.49.17-.74,0-.28-.05-.55-.16-.8-.11-.26-.25-.48-.45-.68-.19-.19-.41-.35-.67-.47-.26-.12-.54-.18-.85-.18s-.58.06-.85.18c-.26.12-.49.3-.69.55-.19.25-.35.55-.46.93s-.16.81-.16,1.32h-3.02c0-.91.13-1.73.4-2.47.27-.74.63-1.36,1.1-1.87.47-.51,1.01-.91,1.63-1.19.62-.28,1.29-.42,2-.42s1.39.13,2.02.4c.63.26,1.18.62,1.64,1.08.47.46.83,1,1.1,1.61.27.62.41,1.28.41,1.99Z"/>
    <path class="cls-1" d="M5973.85,374.42v-2.56c-.44.45-.9.85-1.4,1.2-.49.36-.99.66-1.51.91-.52.25-1.04.44-1.58.57s-1.07.2-1.59.2c-.95,0-1.87-.16-2.77-.47-.91-.31-1.71-.78-2.42-1.4-.71-.62-1.28-1.39-1.71-2.31-.43-.92-.65-1.99-.65-3.2v-13.18h3.01v13.18c0,.73.13,1.38.38,1.94.26.56.6,1.03,1.03,1.41.43.38.92.67,1.48.86.56.19,1.14.29,1.75.29.48,0,.97-.07,1.46-.21.49-.14.95-.33,1.4-.59.44-.25.85-.56,1.24-.91.38-.36.71-.75.99-1.19s.5-.92.67-1.43c.16-.51.24-1.05.24-1.61v-11.74h3.01v20.25h-3.01Z"/>
    <path class="cls-1" d="M5997.11,366.59c0,.75-.1,1.48-.3,2.17-.2.69-.48,1.34-.84,1.94-.36.6-.8,1.15-1.3,1.64-.5.49-1.07.91-1.69,1.26-.62.35-1.28.62-1.99.81-.71.19-1.44.29-2.2.29s-1.51-.1-2.21-.29c-.71-.19-1.37-.46-1.99-.81s-1.18-.77-1.69-1.26c-.51-.49-.94-1.04-1.3-1.64-.36-.6-.64-1.25-.84-1.94-.2-.7-.3-1.42-.3-2.16v-12.42h3.01v12.42c0,.71.14,1.38.41,2,.27.63.64,1.17,1.12,1.64s1.04.84,1.69,1.11c.65.27,1.35.41,2.1.41s1.4-.14,2.04-.41c.64-.27,1.21-.65,1.69-1.11.48-.47.87-1.02,1.15-1.64.28-.63.42-1.29.42-2v-12.42h3.01v12.42Z"/>
    <path class="cls-1" d="M5988.65,351.07c.09-.13.22-.3.36-.5.15-.2.3-.41.47-.63.17-.22.33-.44.49-.67.17-.23.31-.44.45-.63.13-.19.24-.35.32-.49.08-.14.12-.23.12-.27,0-.25-.07-.44-.22-.57-.15-.13-.34-.19-.59-.19-.23,0-.41.09-.54.26l-1.85-1.85c.37-.36.75-.61,1.17-.76.41-.15.83-.23,1.26-.23.49,0,.96.08,1.42.25.45.17.84.39,1.17.68s.56.62.7,1.01c.14.38.16.79.04,1.23l-.18.63h5.67v2.7l-10.26.04Z"/>
    <path class="cls-1" d="M6012.41,374.42h-2.98v-12.82c0-1.55-.38-2.75-1.15-3.6-.77-.85-1.91-1.27-3.43-1.27-.39,0-.76.03-1.1.08-.34.05-.67.14-.98.27-.32.13-.62.31-.93.54-.3.23-.62.52-.95.87l-2.07-2.07c.48-.45.96-.83,1.43-1.15.47-.32.95-.58,1.44-.79.49-.2,1-.35,1.53-.45.53-.09,1.09-.14,1.68-.14,1.3,0,2.42.2,3.36.59.95.39,1.72.92,2.34,1.59.62.67,1.07,1.45,1.37,2.34.3.89.44,1.83.44,2.82v13.18Z"/>
    <path class="cls-1" d="M6029.65,374.42v-2.56c-.44.45-.9.85-1.39,1.2-.49.36-.99.66-1.51.91-.52.25-1.04.44-1.58.57s-1.07.2-1.59.2c-.94,0-1.87-.16-2.77-.47s-1.71-.78-2.42-1.4c-.71-.62-1.28-1.39-1.71-2.31-.43-.92-.65-1.99-.65-3.2v-13.18h3.01v13.18c0,.73.13,1.38.38,1.94.26.56.6,1.03,1.03,1.41s.92.67,1.48.86c.56.19,1.14.29,1.75.29.48,0,.97-.07,1.46-.21.49-.14.95-.33,1.39-.59.44-.25.86-.56,1.24-.91.38-.36.71-.75.99-1.19.28-.44.5-.92.67-1.43.16-.51.24-1.05.24-1.61v-11.74h3.01v20.25h-3.01Z"/>
    <path class="cls-1" d="M6052.9,374.42h-3.01v-13.23c0-.72-.13-1.35-.39-1.91s-.6-1.02-1.03-1.4c-.43-.38-.92-.66-1.48-.86-.56-.19-1.14-.29-1.73-.29-.48,0-.96.07-1.44.21-.48.14-.94.34-1.38.6-.44.26-.86.57-1.24.94s-.72.77-1.01,1.21c-.29.44-.51.91-.67,1.41-.16.5-.24,1.02-.24,1.57v11.74h-3.01v-20.25h3.01v2.6c.42-.46.87-.88,1.35-1.24.48-.37.98-.68,1.5-.93.52-.26,1.04-.45,1.58-.59.54-.14,1.07-.2,1.6-.2.64,0,1.27.07,1.89.21s1.22.35,1.78.63c.56.28,1.09.62,1.57,1.03.48.41.89.89,1.25,1.44.35.55.63,1.16.82,1.84.2.68.3,1.42.3,2.24v13.23Z"/>
    <path class="cls-1" d="M6036.44,351.02v-2.83h13.63v-2.7h2.83v5.54h-16.47Z"/>
    <path class="cls-1" d="M6050.11,343.91v-5.54h2.79v5.54h-2.79Z"/>
    <path class="cls-1" d="M6057.18,374.42v-20.25h3.02v20.25h-3.02Z"/>
    <path class="cls-1" d="M6082.28,374.42h-3.01v-10.09c0-.44-.08-.84-.25-1.21-.17-.37-.39-.69-.68-.97-.28-.28-.6-.51-.97-.69-.36-.18-.74-.29-1.13-.35-.39-.05-.78-.04-1.17.04-.39.08-.75.24-1.08.48l-5.86,4.14v8.64h-3.01v-20.25h3.01v8.14l12.11-8.55,1.76,2.21-3.87,2.74c.63.24,1.2.55,1.71.93.51.38.94.82,1.3,1.31.36.49.63,1.04.83,1.63.19.59.29,1.22.29,1.89v9.94Z"/>
    <path class="cls-1" d="M6102.53,367.36c0,.81-.1,1.56-.3,2.24-.2.68-.47,1.29-.82,1.83-.35.55-.77,1.03-1.25,1.44-.48.41-1,.76-1.57,1.04-.56.28-1.16.49-1.78.63-.62.14-1.25.21-1.89.21-.53,0-1.06-.07-1.59-.2s-1.05-.32-1.56-.57c-.51-.25-1.01-.55-1.49-.91-.49-.35-.95-.76-1.39-1.2v2.56h-3.01v-20.25h3.01v11.74c0,.54.08,1.06.24,1.57.16.5.38.97.67,1.41.29.44.62.84,1,1.21.38.37.8.68,1.24.94.44.26.9.46,1.38.6.48.14.96.21,1.44.21.59,0,1.17-.1,1.73-.29.56-.19,1.05-.48,1.48-.86.43-.38.77-.85,1.03-1.41.26-.56.39-1.21.39-1.94v-13.18h3.01v13.18Z"/>
    <path class="cls-1" d="M6117.83,374.42h-2.98v-12.82c0-1.55-.38-2.75-1.15-3.6-.77-.85-1.91-1.27-3.43-1.27-.4,0-.76.03-1.1.08-.34.05-.67.14-.98.27s-.62.31-.93.54c-.3.23-.62.52-.95.87l-2.06-2.07c.48-.45.96-.83,1.43-1.15.47-.32.95-.58,1.44-.79.49-.2,1-.35,1.53-.45.53-.09,1.09-.14,1.68-.14,1.3,0,2.42.2,3.36.59.94.39,1.72.92,2.34,1.59.62.67,1.07,1.45,1.37,2.34.3.89.45,1.83.45,2.82v13.18Z"/>
    <path class="cls-1" d="M6124.23,361.5c-.46,0-.88-.09-1.27-.26-.39-.17-.73-.41-1.03-.7-.29-.3-.52-.64-.69-1.03-.17-.39-.25-.8-.25-1.24v-1.63h2.83v1.63c0,.11.04.2.13.28.08.08.16.12.24.12h3.69v2.79l-3.65.04ZM6124.23,372.49c-.46,0-.88-.09-1.27-.26-.39-.17-.73-.41-1.03-.7-.29-.3-.52-.64-.69-1.03-.17-.39-.25-.81-.25-1.25v-1.61h2.83v1.61c0,.11.04.21.13.29.08.08.16.12.24.12h3.69v2.83h-3.65Z"/>
    <path class="cls-1" d="M5740.56,404.01c.5.61.87,1.29,1.11,2.04.25.75.37,1.57.37,2.45v12.92h-2.97v-5.62c0-.78-.15-1.46-.45-2.04-.3-.59-.7-1.07-1.2-1.46-.5-.39-1.07-.68-1.71-.88-.64-.2-1.31-.3-1.99-.3s-1.32.1-1.95.3c-.63.2-1.18.5-1.65.89-.48.39-.86.88-1.14,1.46-.29.58-.43,1.26-.43,2.03,0,.72.18,1.41.54,2.08.36.67.96,1.33,1.8,1.98l-2.08,2.15c-1.11-.88-1.93-1.84-2.47-2.88s-.81-2.15-.81-3.33c0-.78.11-1.5.32-2.19.21-.68.51-1.31.88-1.87.38-.57.82-1.07,1.34-1.52.52-.44,1.08-.82,1.69-1.13s1.25-.54,1.92-.7c.67-.16,1.35-.24,2.04-.24.93,0,1.85.13,2.76.4.91.26,1.78.7,2.59,1.31v-1.35c0-.75-.16-1.42-.47-2-.31-.58-.73-1.07-1.24-1.47-.51-.4-1.09-.7-1.74-.9-.65-.21-1.32-.31-1.99-.31-.63,0-1.24.08-1.82.25-.58.17-1.11.44-1.58.8-.47.37-.87.84-1.2,1.41-.33.58-.55,1.27-.68,2.08h-3.01c.08-.88.25-1.67.52-2.38.27-.71.6-1.34,1-1.9.4-.55.86-1.03,1.38-1.43.52-.4,1.07-.73,1.65-.99.59-.26,1.2-.45,1.83-.58.63-.12,1.27-.19,1.9-.19.79,0,1.56.09,2.32.27.75.18,1.49.47,2.22.86l2.53-2.75,2.34,2.02-2.48,2.7Z"/>
    <path class="cls-1" d="M5762.3,414.36c0,.81-.1,1.56-.3,2.24-.2.68-.47,1.29-.82,1.83-.35.55-.77,1.03-1.25,1.44-.48.41-1,.76-1.57,1.04-.56.28-1.16.49-1.78.63-.62.14-1.25.21-1.89.21-.53,0-1.06-.07-1.59-.2-.53-.13-1.05-.32-1.56-.57s-1.01-.55-1.49-.91c-.49-.35-.95-.76-1.39-1.2v2.56h-3.01v-20.25h3.01v11.74c0,.54.08,1.06.24,1.57.16.5.38.97.67,1.41s.62.84,1,1.21c.38.37.8.68,1.24.94.44.26.9.46,1.38.6.48.14.96.21,1.45.21.59,0,1.17-.1,1.73-.29.56-.19,1.05-.48,1.48-.86.43-.38.77-.85,1.03-1.41.26-.56.39-1.21.39-1.94v-13.18h3.01v13.18Z"/>
    <path class="cls-1" d="M5780.65,404.01c.5.61.87,1.29,1.12,2.04.25.75.37,1.57.37,2.45v12.92h-2.97v-5.62c0-.78-.15-1.46-.45-2.04-.3-.59-.7-1.07-1.2-1.46-.5-.39-1.07-.68-1.71-.88-.64-.2-1.31-.3-1.99-.3s-1.32.1-1.95.3c-.63.2-1.18.5-1.65.89-.48.39-.86.88-1.14,1.46-.29.58-.43,1.26-.43,2.03,0,.72.18,1.41.54,2.08.36.67.96,1.33,1.8,1.98l-2.08,2.15c-1.11-.88-1.93-1.84-2.47-2.88s-.81-2.15-.81-3.33c0-.78.11-1.5.32-2.19.21-.68.51-1.31.88-1.87.38-.57.82-1.07,1.34-1.52.52-.44,1.08-.82,1.69-1.13s1.25-.54,1.92-.7,1.35-.24,2.04-.24c.93,0,1.85.13,2.76.4s1.77.7,2.59,1.31v-1.35c0-.75-.16-1.42-.47-2-.32-.58-.73-1.07-1.24-1.47-.51-.4-1.09-.7-1.74-.9-.65-.21-1.31-.31-1.99-.31-.63,0-1.24.08-1.82.25-.58.17-1.11.44-1.58.8s-.87.84-1.2,1.41c-.33.58-.55,1.27-.68,2.08h-3.01c.08-.88.25-1.67.52-2.38s.6-1.34,1.01-1.9c.4-.55.86-1.03,1.38-1.43.52-.4,1.07-.73,1.65-.99.59-.26,1.2-.45,1.83-.58.63-.12,1.26-.19,1.89-.19.79,0,1.56.09,2.32.27.75.18,1.49.47,2.22.86l2.53-2.75,2.34,2.02-2.48,2.7Z"/>
    <path class="cls-1" d="M5783.85,395.55c0,.44-.08.85-.25,1.24-.17.39-.4.73-.69,1.02-.29.29-.64.52-1.03.69-.4.17-.82.25-1.26.25s-.88-.08-1.27-.25c-.39-.17-.73-.4-1.03-.69-.29-.29-.52-.63-.69-1.02-.17-.39-.25-.8-.25-1.24s.08-.87.25-1.26c.17-.4.4-.74.69-1.03s.63-.52,1.03-.69c.39-.17.81-.25,1.27-.25s.87.08,1.26.25c.4.17.74.4,1.03.69s.52.64.69,1.03c.17.4.25.82.25,1.26ZM5781.64,395.55c0-.29-.1-.54-.3-.74s-.44-.3-.74-.3c-.15,0-.28.03-.41.08-.13.05-.24.12-.34.22-.1.1-.18.21-.24.33s-.09.26-.09.41.03.28.09.41c.06.13.14.24.24.34.1.1.21.18.34.24.13.06.27.09.41.09s.28-.03.41-.09c.12-.06.23-.14.33-.24.09-.1.17-.21.22-.34.05-.13.08-.27.08-.41Z"/>
    <path class="cls-1" d="M5797.44,421.42h-2.98v-12.82c0-1.55-.38-2.75-1.15-3.6-.77-.85-1.91-1.27-3.43-1.27-.4,0-.76.03-1.1.08-.34.05-.67.14-.98.27-.32.13-.62.31-.93.54-.3.23-.62.52-.95.87l-2.07-2.07c.48-.45.96-.83,1.43-1.15.47-.32.95-.58,1.44-.79.49-.2,1-.35,1.53-.45.53-.09,1.09-.14,1.68-.14,1.3,0,2.42.2,3.36.59.94.39,1.72.92,2.34,1.59.62.67,1.07,1.45,1.37,2.34.3.89.45,1.83.45,2.82v13.18Z"/>
    <path class="cls-1" d="M5818.18,421.42h-3.01v-10.09c0-.44-.08-.84-.25-1.21-.17-.37-.39-.69-.68-.97s-.6-.51-.97-.69c-.36-.18-.74-.29-1.13-.35-.39-.05-.78-.04-1.17.04-.39.08-.75.24-1.08.48l-5.86,4.14v8.64h-3.01v-20.25h3.01v8.14l12.11-8.55,1.76,2.21-3.87,2.74c.63.24,1.2.55,1.71.93.51.38.94.82,1.3,1.31.36.49.64,1.04.83,1.63.19.59.29,1.22.29,1.89v9.94Z"/>
    <path class="cls-1" d="M5834.07,407.43c-.23-.72-.53-1.32-.88-1.81-.36-.49-.76-.88-1.21-1.18-.45-.3-.94-.51-1.48-.64-.53-.13-1.1-.19-1.69-.19s-1.18.07-1.7.2c-.52.14-.97.33-1.34.58-.37.25-.66.55-.87.91-.21.35-.31.75-.31,1.19,0,.31.11.58.34.79.23.21.54.39.93.54.39.15.85.28,1.37.38.52.11,1.08.21,1.67.32.59.11,1.19.23,1.81.36.62.13,1.23.3,1.81.49s1.14.44,1.66.73c.52.29.98.64,1.37,1.06.39.42.7.91.93,1.48.23.57.34,1.24.34,2s-.1,1.48-.31,2.14c-.21.66-.5,1.25-.86,1.77-.36.53-.79.99-1.29,1.4-.49.41-1.03.75-1.6,1.02s-1.17.48-1.8.62c-.63.14-1.25.21-1.88.21s-1.21-.06-1.81-.19c-.61-.13-1.19-.32-1.76-.58-.56-.26-1.1-.58-1.6-.98s-.95-.86-1.33-1.39c-.39-.53-.71-1.14-.96-1.81-.25-.68-.4-1.43-.46-2.26l2.89-.99c.09.97.28,1.79.57,2.46.29.67.66,1.21,1.1,1.63.44.42.95.72,1.52.91.57.19,1.17.28,1.81.28s1.29-.09,1.87-.28c.58-.19,1.08-.46,1.51-.82.43-.36.77-.81,1.02-1.33.25-.52.37-1.12.37-1.8,0-.51-.11-.94-.34-1.3-.23-.35-.54-.65-.93-.89-.39-.24-.85-.44-1.37-.6-.52-.16-1.07-.29-1.66-.41s-1.19-.23-1.8-.34c-.62-.11-1.21-.23-1.8-.37-.59-.14-1.14-.32-1.66-.53-.52-.21-.98-.47-1.37-.8-.39-.32-.7-.71-.93-1.17-.23-.46-.34-1.01-.34-1.66s.1-1.24.29-1.77c.19-.54.46-1.02.8-1.46.34-.43.73-.81,1.19-1.14s.95-.6,1.48-.82c.53-.22,1.09-.38,1.66-.49.58-.11,1.16-.17,1.74-.17.82,0,1.64.1,2.47.3.82.2,1.6.52,2.32.97.72.45,1.38,1.03,1.95,1.75.57.72,1.03,1.61,1.36,2.65l-2.79,1.03Z"/>
    <path class="cls-1" d="M5828.36,398.07c-.44,0-.85-.09-1.24-.26-.39-.17-.73-.41-1.02-.7-.29-.3-.52-.64-.69-1.03-.17-.39-.25-.81-.25-1.25v-1.85h2.83v1.85c0,.24.12.36.36.36h9.99v2.83l-9.99.04Z"/>
    <path class="cls-1" d="M5856.79,413.59c0,.75-.1,1.48-.3,2.17-.2.69-.48,1.34-.84,1.94-.36.6-.8,1.15-1.3,1.64-.5.49-1.07.91-1.69,1.26s-1.28.62-1.99.81c-.71.19-1.44.29-2.2.29s-1.51-.1-2.21-.29c-.71-.19-1.37-.46-1.99-.81-.62-.35-1.18-.77-1.69-1.26-.5-.49-.94-1.04-1.3-1.64-.36-.6-.64-1.25-.84-1.94-.2-.7-.3-1.42-.3-2.16v-12.42h3.01v12.42c0,.71.13,1.38.41,2,.27.63.64,1.17,1.12,1.64s1.04.84,1.69,1.11c.65.27,1.35.41,2.1.41s1.4-.14,2.04-.41c.64-.27,1.21-.65,1.69-1.11.48-.47.87-1.02,1.15-1.64.28-.63.42-1.29.42-2v-12.42h3.01v12.42Z"/>
    <path class="cls-1" d="M5877.49,421.42h-3.01v-11.66c0-.9-.16-1.72-.48-2.46-.32-.74-.77-1.37-1.34-1.89-.57-.52-1.25-.93-2.05-1.21-.79-.29-1.67-.43-2.61-.43-.5,0-.99.06-1.47.19-.48.13-.94.31-1.38.53s-.86.49-1.24.8c-.38.31-.73.64-1.04,1l1.35,1.48v13.63h-3.01v-12.65l-2.08-2.25c.48-.86,1.05-1.63,1.69-2.32.64-.69,1.34-1.28,2.1-1.77.76-.49,1.57-.86,2.42-1.13.85-.27,1.74-.4,2.65-.4,1.39,0,2.67.22,3.83.66s2.17,1.05,3,1.83c.84.78,1.49,1.72,1.96,2.8.47,1.08.7,2.27.7,3.57v11.66Z"/>
    <path class="cls-1" d="M5892.79,421.42h-2.98v-12.82c0-1.55-.38-2.75-1.15-3.6-.77-.85-1.91-1.27-3.43-1.27-.39,0-.76.03-1.1.08-.34.05-.67.14-.98.27-.32.13-.62.31-.93.54-.3.23-.62.52-.95.87l-2.07-2.07c.48-.45.96-.83,1.43-1.15.47-.32.95-.58,1.44-.79.49-.2,1-.35,1.53-.45.53-.09,1.09-.14,1.68-.14,1.3,0,2.42.2,3.36.59.95.39,1.72.92,2.34,1.59.62.67,1.07,1.45,1.37,2.34.3.89.44,1.83.44,2.82v13.18Z"/>
    <path class="cls-1" d="M5908.68,407.43c-.23-.72-.53-1.32-.88-1.81-.36-.49-.76-.88-1.21-1.18-.45-.3-.94-.51-1.48-.64-.54-.13-1.1-.19-1.69-.19s-1.18.07-1.7.2c-.52.14-.97.33-1.34.58-.37.25-.67.55-.87.91-.21.35-.31.75-.31,1.19,0,.31.11.58.34.79.23.21.54.39.93.54.39.15.85.28,1.37.38.52.11,1.08.21,1.66.32.59.11,1.19.23,1.81.36.62.13,1.23.3,1.81.49s1.14.44,1.67.73c.52.29.98.64,1.37,1.06.39.42.7.91.93,1.48.23.57.34,1.24.34,2s-.1,1.48-.31,2.14c-.21.66-.49,1.25-.86,1.77s-.79.99-1.29,1.4c-.49.41-1.03.75-1.6,1.02-.57.27-1.18.48-1.8.62s-1.25.21-1.88.21-1.21-.06-1.81-.19c-.61-.13-1.19-.32-1.76-.58-.56-.26-1.1-.58-1.6-.98-.5-.4-.95-.86-1.33-1.39-.39-.53-.71-1.14-.96-1.81-.25-.68-.4-1.43-.46-2.26l2.89-.99c.09.97.28,1.79.57,2.46.29.67.66,1.21,1.1,1.63.44.42.95.72,1.52.91.57.19,1.17.28,1.81.28s1.29-.09,1.87-.28c.58-.19,1.08-.46,1.51-.82.43-.36.77-.81,1.02-1.33.25-.52.37-1.12.37-1.8,0-.51-.11-.94-.34-1.3-.23-.35-.54-.65-.93-.89-.39-.24-.85-.44-1.37-.6-.52-.16-1.07-.29-1.66-.41s-1.19-.23-1.8-.34c-.62-.11-1.22-.23-1.8-.37-.59-.14-1.14-.32-1.66-.53-.52-.21-.98-.47-1.37-.8s-.7-.71-.93-1.17c-.23-.46-.34-1.01-.34-1.66s.1-1.24.29-1.77c.19-.54.46-1.02.8-1.46.34-.43.73-.81,1.19-1.14.46-.33.95-.6,1.48-.82.53-.22,1.08-.38,1.66-.49.58-.11,1.16-.17,1.74-.17.82,0,1.64.1,2.47.3.82.2,1.6.52,2.32.97.72.45,1.38,1.03,1.95,1.75.58.72,1.03,1.61,1.36,2.65l-2.79,1.03Z"/>
    <path class="cls-1" d="M5929.51,421.42v-13.14c0-.89-.19-1.67-.58-2.35-.39-.68-.91-1.23-1.57-1.66l-3.47,2.83-3.5-2.88c-.46.31-.89.69-1.3,1.15-.4.46-.76.99-1.06,1.61-.3.62-.54,1.31-.71,2.09-.17.78-.26,1.64-.26,2.58,0,1.01.12,1.95.36,2.81s.58,1.61,1.02,2.24.97,1.12,1.59,1.48c.62.35,1.31.53,2.07.53.17,0,.33-.02.49-.05.16-.03.33-.1.5-.19.17-.09.36-.22.56-.38.21-.17.44-.38.69-.63l2.16,2.07c-.75.7-1.48,1.22-2.2,1.56-.72.34-1.46.51-2.21.51-1.32,0-2.48-.26-3.48-.77s-1.84-1.22-2.52-2.11c-.68-.89-1.19-1.94-1.53-3.15-.34-1.21-.52-2.51-.52-3.91s.17-2.76.5-3.94c.33-1.18.8-2.22,1.4-3.12.6-.9,1.31-1.67,2.15-2.3s1.75-1.12,2.76-1.48l3.05,2.52,3.07-2.52c.84.31,1.6.71,2.29,1.18.68.47,1.26,1.02,1.75,1.64.48.62.86,1.31,1.12,2.07.26.76.39,1.59.39,2.49v13.23h-2.98Z"/>
    <path class="cls-1" d="M5916.06,398.02v-2.83h16.47v2.83h-16.47Z"/>
    <path class="cls-1" d="M5950.71,421.42v-12.65c0-.65-.11-1.25-.34-1.79s-.54-1.02-.93-1.43c-.39-.41-.85-.76-1.37-1.03-.52-.27-1.08-.47-1.66-.6-.59-.12-1.19-.17-1.81-.12-.62.04-1.23.18-1.81.4-.59.22-1.14.54-1.66.95s-.98.93-1.37,1.55c-.39.62-.7,1.35-.93,2.19s-.34,1.79-.34,2.86c0,1,.12,1.93.36,2.78.24.85.59,1.59,1.03,2.21.45.62.99,1.1,1.62,1.46.63.35,1.34.53,2.12.53.19,0,.37-.02.53-.06.16-.04.33-.1.51-.19.18-.09.37-.22.58-.37.21-.16.45-.35.72-.59l2.15,2.07c-.78.7-1.53,1.21-2.25,1.55-.71.34-1.46.51-2.25.51-1.36,0-2.54-.26-3.56-.77-1.02-.51-1.88-1.21-2.56-2.1-.68-.89-1.2-1.94-1.55-3.14-.35-1.2-.52-2.5-.52-3.88,0-1.27.13-2.42.39-3.44.26-1.03.62-1.94,1.08-2.75.46-.8,1-1.5,1.63-2.08.63-.59,1.3-1.07,2.03-1.45.73-.38,1.49-.66,2.29-.85.8-.18,1.6-.27,2.4-.27.71,0,1.42.08,2.12.24.7.16,1.37.39,2,.7.63.3,1.22.68,1.76,1.13.54.45,1.01.96,1.41,1.54.4.58.71,1.21.93,1.91.22.7.33,1.46.33,2.27v12.73h-3.05Z"/>
    <path class="cls-1" d="M5972.12,421.42v-13.14c0-.89-.19-1.67-.58-2.35-.39-.68-.91-1.23-1.57-1.66l-3.47,2.83-3.5-2.88c-.46.31-.89.69-1.3,1.15-.4.46-.76.99-1.06,1.61s-.54,1.31-.71,2.09-.26,1.64-.26,2.58c0,1.01.12,1.95.36,2.81.24.86.58,1.61,1.02,2.24s.97,1.12,1.59,1.48c.62.35,1.31.53,2.07.53.17,0,.33-.02.49-.05.16-.03.33-.1.5-.19.17-.09.36-.22.57-.38.21-.17.44-.38.69-.63l2.16,2.07c-.75.7-1.48,1.22-2.2,1.56-.72.34-1.46.51-2.21.51-1.32,0-2.48-.26-3.48-.77-1-.51-1.84-1.22-2.52-2.11s-1.19-1.94-1.53-3.15c-.34-1.21-.52-2.51-.52-3.91s.17-2.76.5-3.94c.33-1.18.8-2.22,1.39-3.12.6-.9,1.31-1.67,2.15-2.3.83-.63,1.75-1.12,2.76-1.48l3.05,2.52,3.07-2.52c.84.31,1.6.71,2.29,1.18.68.47,1.26,1.02,1.75,1.64.48.62.86,1.31,1.12,2.07.26.76.39,1.59.39,2.49v13.23h-2.98Z"/>
    <path class="cls-1" d="M5966.96,398.07c-.44,0-.85-.09-1.24-.26-.39-.17-.73-.41-1.02-.7-.29-.3-.52-.64-.69-1.03-.17-.39-.25-.81-.25-1.25v-1.85h2.83v1.85c0,.24.12.36.36.36h9.99v2.83l-9.99.04Z"/>
    <path class="cls-1" d="M5966.92,390.96c.08-.12.19-.29.32-.49.14-.2.28-.42.43-.64s.31-.46.46-.69c.15-.23.29-.45.42-.65s.23-.37.31-.51.12-.23.12-.26c0-.54-.21-.81-.63-.81-.23,0-.44.09-.64.27l-1.8-1.8c.69-.63,1.49-.95,2.4-.95.48,0,.96.09,1.42.26.46.17.86.4,1.19.69.33.29.58.63.73,1.02.15.39.16.8.03,1.23l-.19.63c.07,0,.16,0,.26-.02.1-.01.24-.02.42-.02h4.77v2.75h-10.03Z"/>
    <path class="cls-1" d="M5991.89,417.28c0,.62-.11,1.19-.34,1.73-.23.54-.54,1.01-.94,1.41-.4.4-.87.71-1.42.94-.54.23-1.13.34-1.76.34-.45,0-.88-.06-1.29-.19-.41-.13-.79-.31-1.14-.54-.35-.23-.66-.51-.93-.82-.28-.32-.5-.67-.69-1.06l-5.81-12.28,2.79-1.09,5.77,12.25c.11.25.27.44.48.57.21.13.48.19.82.19.21,0,.41-.04.58-.11s.33-.17.46-.3c.13-.12.23-.27.3-.44.07-.17.1-.35.1-.54v-13.23h-2.79v-2.92h5.81v16.11Z"/>
    <path class="cls-1" d="M6008.76,421.42v-5.58c0-.78-.15-1.46-.45-2.05-.3-.59-.7-1.08-1.2-1.48s-1.07-.69-1.71-.9c-.64-.2-1.31-.3-1.99-.3s-1.32.1-1.95.3c-.63.2-1.18.5-1.65.9s-.86.89-1.14,1.48c-.29.59-.43,1.27-.43,2.05,0,.72.18,1.41.54,2.08.36.67.96,1.33,1.8,1.98l-2.08,2.11c-1.11-.88-1.93-1.84-2.47-2.87-.54-1.04-.81-2.13-.81-3.29,0-.79.11-1.53.32-2.22.21-.69.51-1.32.88-1.89.38-.57.82-1.07,1.34-1.52.52-.44,1.08-.82,1.69-1.13s1.25-.54,1.92-.7c.67-.16,1.35-.24,2.04-.24.93,0,1.85.14,2.76.42.91.28,1.78.72,2.59,1.33v-1.4c0-.76-.16-1.43-.47-2.01-.31-.58-.73-1.06-1.24-1.45-.51-.39-1.09-.68-1.74-.87-.65-.19-1.32-.29-1.99-.29-.63,0-1.24.08-1.82.25-.58.16-1.11.43-1.58.79-.47.36-.87.82-1.2,1.39-.33.57-.55,1.26-.68,2.07h-3.01c.08-.87.25-1.66.52-2.36.27-.7.6-1.33,1-1.88.4-.55.86-1.03,1.38-1.43.52-.4,1.07-.73,1.65-.99.59-.26,1.2-.45,1.83-.58.63-.12,1.27-.19,1.9-.19s1.32.07,1.99.21c.67.14,1.32.35,1.94.63.62.28,1.21.63,1.75,1.05.55.42,1.02.91,1.42,1.47.4.56.72,1.19.95,1.89.23.7.35,1.47.35,2.3v12.92h-2.97Z"/>
    <path class="cls-1" d="M5995.26,398.02v-2.83h16.47v2.83h-16.47Z"/>
    <path class="cls-1" d="M6035.45,416.02c0,.51-.07,1.01-.2,1.48-.14.48-.33.92-.58,1.34-.25.42-.56.8-.91,1.14-.35.34-.74.64-1.17.88-.43.25-.9.44-1.39.57-.49.14-1.01.2-1.55.2-.83,0-1.62-.17-2.35-.49-.73-.33-1.37-.78-1.92-1.34-.52.56-1.14,1.01-1.86,1.34-.72.33-1.53.49-2.41.49-.79,0-1.54-.15-2.23-.45-.7-.3-1.3-.71-1.83-1.21-.52-.51-.94-1.1-1.24-1.79-.3-.68-.46-1.41-.46-2.18v-14.84h3.01v14.84c0,.37.07.73.21,1.05s.33.62.58.86c.25.24.54.43.87.58.33.14.7.21,1.09.21s.76-.07,1.1-.21c.34-.14.63-.33.88-.58.25-.24.45-.53.59-.86s.21-.68.21-1.05v-14.84h3.02v14.84c0,.37.07.73.21,1.05s.33.62.57.86.53.43.86.58c.33.14.7.21,1.09.21s.76-.07,1.1-.21c.34-.14.64-.33.88-.58s.44-.53.59-.86c.14-.33.21-.68.21-1.05v-23.04h3.02v23.04Z"/>
    <path class="cls-1" d="M6053.81,421.42v-13.14c0-.89-.19-1.67-.58-2.35-.39-.68-.91-1.23-1.57-1.66l-3.47,2.83-3.5-2.88c-.46.31-.89.69-1.3,1.15-.4.46-.76.99-1.06,1.61s-.54,1.31-.71,2.09-.26,1.64-.26,2.58c0,1.01.12,1.95.36,2.81.24.86.58,1.61,1.02,2.24s.97,1.12,1.59,1.48c.62.35,1.31.53,2.07.53.17,0,.33-.02.49-.05.16-.03.33-.1.5-.19.17-.09.36-.22.57-.38.21-.17.44-.38.69-.63l2.16,2.07c-.75.7-1.48,1.22-2.2,1.56-.72.34-1.46.51-2.21.51-1.32,0-2.48-.26-3.48-.77-1-.51-1.84-1.22-2.52-2.11s-1.19-1.94-1.53-3.15c-.34-1.21-.52-2.51-.52-3.91s.17-2.76.5-3.94c.33-1.18.8-2.22,1.39-3.12.6-.9,1.31-1.67,2.15-2.3.83-.63,1.75-1.12,2.76-1.48l3.05,2.52,3.07-2.52c.84.31,1.6.71,2.29,1.18.68.47,1.26,1.02,1.75,1.64.48.62.86,1.31,1.12,2.07.26.76.39,1.59.39,2.49v13.23h-2.98Z"/>
    <path class="cls-1" d="M6053.77,395.59c-.07,0-.16.03-.26.08-.1.06-.15.16-.15.32,0,.06,0,.11.03.14s.05.08.11.14c.05.05.13.13.22.23s.21.23.36.4l-1.89,1.89c-.28-.27-.51-.52-.71-.76-.2-.23-.35-.46-.47-.68s-.21-.44-.26-.67-.08-.47-.08-.73c0-.5.07-.94.22-1.32.15-.38.36-.71.63-.97s.61-.46,1-.6c.39-.14.82-.21,1.31-.21h3.82v2.75h-3.87Z"/>
    <path class="cls-1" d="M6075.19,404.01c.5.61.87,1.29,1.11,2.04.25.75.37,1.57.37,2.45v12.92h-2.97v-5.62c0-.78-.15-1.46-.45-2.04-.3-.59-.7-1.07-1.2-1.46-.5-.39-1.07-.68-1.71-.88-.64-.2-1.31-.3-1.99-.3s-1.32.1-1.95.3c-.63.2-1.18.5-1.65.89-.48.39-.86.88-1.14,1.46-.29.58-.43,1.26-.43,2.03,0,.72.18,1.41.54,2.08.36.67.96,1.33,1.8,1.98l-2.08,2.15c-1.11-.88-1.93-1.84-2.47-2.88-.54-1.04-.81-2.15-.81-3.33,0-.78.11-1.5.32-2.19.21-.68.51-1.31.88-1.87.38-.57.82-1.07,1.34-1.52.52-.44,1.08-.82,1.69-1.13.61-.31,1.25-.54,1.92-.7.67-.16,1.35-.24,2.04-.24.93,0,1.85.13,2.76.4.91.26,1.77.7,2.59,1.31v-1.35c0-.75-.16-1.42-.47-2-.31-.58-.73-1.07-1.24-1.47s-1.09-.7-1.74-.9-1.31-.31-1.99-.31c-.63,0-1.24.08-1.82.25-.58.17-1.11.44-1.58.8s-.87.84-1.2,1.41c-.33.58-.55,1.27-.68,2.08h-3.01c.08-.88.25-1.67.52-2.38s.6-1.34,1-1.9c.4-.55.86-1.03,1.38-1.43s1.07-.73,1.65-.99c.59-.26,1.2-.45,1.83-.58.63-.12,1.26-.19,1.9-.19.79,0,1.56.09,2.32.27.75.18,1.49.47,2.22.86l2.53-2.75,2.34,2.02-2.48,2.7Z"/>
    <path class="cls-1" d="M6091.97,421.42h-2.98v-12.82c0-1.55-.38-2.75-1.15-3.6-.77-.85-1.91-1.27-3.43-1.27-.4,0-.76.03-1.1.08-.34.05-.67.14-.98.27-.32.13-.62.31-.93.54s-.62.52-.95.87l-2.07-2.07c.48-.45.96-.83,1.43-1.15.47-.32.95-.58,1.44-.79.49-.2,1-.35,1.53-.45.53-.09,1.09-.14,1.68-.14,1.3,0,2.42.2,3.36.59.94.39,1.72.92,2.34,1.59.62.67,1.07,1.45,1.37,2.34.3.89.44,1.83.44,2.82v13.18Z"/>
    <path class="cls-1" d="M6112.22,414.36c0,.81-.1,1.56-.3,2.24-.2.68-.47,1.29-.82,1.83-.35.55-.77,1.03-1.25,1.44-.48.41-1,.76-1.57,1.04-.56.28-1.16.49-1.78.63-.62.14-1.25.21-1.89.21-.53,0-1.06-.07-1.59-.2s-1.05-.32-1.56-.57c-.51-.25-1.01-.55-1.49-.91-.49-.35-.95-.76-1.39-1.2v2.56h-3.01v-20.25h3.01v11.74c0,.54.08,1.06.24,1.57.16.5.38.97.67,1.41.29.44.62.84,1,1.21.38.37.8.68,1.24.94.44.26.9.46,1.38.6.48.14.96.21,1.44.21.59,0,1.17-.1,1.73-.29.56-.19,1.05-.48,1.48-.86.43-.38.77-.85,1.03-1.41.26-.56.39-1.21.39-1.94v-13.18h3.01v13.18Z"/>
    <path class="cls-1" d="M6127.52,421.42h-2.98v-12.82c0-1.55-.38-2.75-1.15-3.6-.77-.85-1.91-1.27-3.43-1.27-.4,0-.76.03-1.1.08-.34.05-.67.14-.98.27-.32.13-.62.31-.93.54-.3.23-.62.52-.95.87l-2.07-2.07c.48-.45.96-.83,1.43-1.15.47-.32.95-.58,1.44-.79.49-.2,1-.35,1.53-.45.53-.09,1.09-.14,1.68-.14,1.3,0,2.42.2,3.36.59.94.39,1.72.92,2.34,1.59.62.67,1.07,1.45,1.37,2.34.3.89.45,1.83.45,2.82v13.18Z"/>
    <path class="cls-1" d="M6143.41,407.43c-.23-.72-.53-1.32-.88-1.81-.36-.49-.76-.88-1.21-1.18-.45-.3-.94-.51-1.48-.64-.53-.13-1.1-.19-1.69-.19s-1.18.07-1.7.2c-.52.14-.97.33-1.34.58-.37.25-.66.55-.87.91-.21.35-.31.75-.31,1.19,0,.31.11.58.34.79.23.21.54.39.93.54.39.15.85.28,1.37.38.52.11,1.08.21,1.67.32.59.11,1.19.23,1.81.36.62.13,1.23.3,1.81.49s1.14.44,1.66.73c.52.29.98.64,1.37,1.06.39.42.7.91.93,1.48.23.57.34,1.24.34,2s-.1,1.48-.31,2.14c-.21.66-.5,1.25-.86,1.77-.36.53-.79.99-1.29,1.4-.49.41-1.03.75-1.6,1.02s-1.17.48-1.8.62c-.63.14-1.25.21-1.88.21s-1.21-.06-1.81-.19c-.61-.13-1.19-.32-1.76-.58-.56-.26-1.1-.58-1.6-.98s-.95-.86-1.33-1.39c-.39-.53-.71-1.14-.96-1.81-.25-.68-.4-1.43-.46-2.26l2.89-.99c.09.97.28,1.79.57,2.46.29.67.66,1.21,1.1,1.63.44.42.95.72,1.52.91.57.19,1.17.28,1.81.28s1.29-.09,1.87-.28c.58-.19,1.08-.46,1.51-.82.43-.36.77-.81,1.02-1.33.25-.52.37-1.12.37-1.8,0-.51-.11-.94-.34-1.3-.23-.35-.54-.65-.93-.89-.39-.24-.85-.44-1.37-.6-.52-.16-1.07-.29-1.66-.41s-1.19-.23-1.8-.34c-.62-.11-1.21-.23-1.8-.37-.59-.14-1.14-.32-1.66-.53-.52-.21-.98-.47-1.37-.8-.39-.32-.7-.71-.93-1.17-.23-.46-.34-1.01-.34-1.66s.1-1.24.29-1.77c.19-.54.46-1.02.8-1.46.34-.43.73-.81,1.19-1.14s.95-.6,1.48-.82c.53-.22,1.09-.38,1.66-.49.58-.11,1.16-.17,1.74-.17.82,0,1.64.1,2.47.3.82.2,1.6.52,2.32.97.72.45,1.38,1.03,1.95,1.75.57.72,1.03,1.61,1.36,2.65l-2.79,1.03Z"/>
    <path class="cls-1" d="M6166.58,421.42h-3.01v-11.66c0-.9-.16-1.72-.48-2.46-.32-.74-.77-1.37-1.34-1.89-.57-.52-1.25-.93-2.05-1.21-.79-.29-1.66-.43-2.61-.43-.5,0-.99.06-1.47.19-.48.13-.94.31-1.39.53s-.87.49-1.26.8-.75.64-1.06,1l1.35,1.48v10.76l2.97-.04v2.92h-5.93v-12.65l-2.08-2.25c.51-.86,1.08-1.63,1.71-2.32.64-.69,1.33-1.28,2.08-1.77.75-.49,1.55-.86,2.4-1.13.85-.27,1.74-.4,2.68-.4,1.39,0,2.67.22,3.83.66,1.17.44,2.17,1.05,3,1.83s1.49,1.72,1.96,2.8.7,2.27.7,3.57v11.66Z"/>
    <path class="cls-1" d="M5742.95,468.42h-3.01v-10.09c0-.44-.08-.84-.25-1.21-.17-.37-.39-.69-.68-.97s-.6-.51-.97-.69c-.36-.18-.74-.29-1.13-.35-.39-.05-.78-.04-1.17.04-.39.08-.75.24-1.08.48l-5.86,4.14v8.64h-3.01v-20.25h3.01v8.14l12.11-8.55,1.76,2.21-3.87,2.74c.63.24,1.2.55,1.71.93.51.38.94.82,1.3,1.31.36.49.64,1.04.83,1.63.19.59.29,1.22.29,1.89v9.94Z"/>
    <path class="cls-1" d="M5758.25,468.42h-2.98v-12.82c0-1.55-.38-2.75-1.15-3.6-.77-.85-1.91-1.27-3.43-1.27-.4,0-.76.03-1.1.08-.34.05-.67.14-.98.27-.32.13-.62.31-.93.54s-.62.52-.95.87l-2.07-2.07c.48-.45.96-.83,1.43-1.15.47-.32.95-.58,1.44-.79.49-.2,1-.35,1.53-.45.53-.09,1.09-.14,1.68-.14,1.3,0,2.42.2,3.36.59.94.39,1.72.92,2.34,1.59.62.67,1.07,1.45,1.37,2.34.3.89.44,1.83.44,2.82v13.18Z"/>
    <path class="cls-1" d="M5781.93,463.02c0,.77-.15,1.49-.45,2.18-.3.68-.71,1.28-1.24,1.79-.52.51-1.13.91-1.83,1.21-.7.3-1.45.45-2.25.45-.88,0-1.68-.17-2.41-.49-.73-.33-1.35-.78-1.87-1.34-.52.56-1.14,1.01-1.86,1.34-.72.33-1.53.49-2.41.49-.8,0-1.55-.15-2.25-.45-.7-.3-1.31-.71-1.83-1.21-.52-.51-.93-1.1-1.23-1.79s-.45-1.41-.45-2.18v-14.84h2.97v14.84c0,.37.07.73.21,1.05s.34.62.59.86c.25.24.55.43.88.58.34.14.7.21,1.1.21s.76-.07,1.1-.21c.34-.14.63-.33.88-.58.25-.24.45-.53.59-.86s.21-.68.21-1.05v-14.84h2.97v14.84c0,.37.07.73.21,1.05s.34.62.59.86c.25.24.55.43.88.58.34.14.7.21,1.1.21s.76-.07,1.1-.21c.34-.14.64-.33.88-.58s.44-.53.59-.86c.14-.33.21-.68.21-1.05v-14.84h2.98v14.84Z"/>
    <path class="cls-1" d="M5765.45,445.02v-2.83h8.91v-2.7h2.79v2.7h1.93v-2.7h2.83v5.54h-16.47Z"/>
    <path class="cls-1" d="M5773.69,437.96c.08-.12.19-.29.32-.49.13-.2.28-.42.43-.64s.31-.46.46-.69c.15-.23.29-.45.42-.65s.23-.37.31-.51.12-.23.12-.26c0-.54-.21-.81-.63-.81-.23,0-.44.09-.64.27l-1.8-1.8c.69-.63,1.49-.95,2.39-.95.48,0,.96.09,1.42.26.46.17.86.4,1.19.69.33.29.58.63.73,1.02.15.39.17.8.03,1.23l-.19.63c.07,0,.16,0,.26-.02.1-.01.24-.02.42-.02h4.77v2.75h-10.03Z"/>
    <path class="cls-1" d="M5799.15,468.42v-2.56c-.44.45-.9.85-1.4,1.2-.49.36-.99.66-1.51.91-.52.25-1.04.44-1.58.57s-1.07.2-1.59.2c-.95,0-1.87-.16-2.77-.47-.91-.31-1.71-.78-2.42-1.4-.71-.62-1.28-1.39-1.71-2.31-.43-.92-.65-1.99-.65-3.2v-13.18h3.01v13.18c0,.73.13,1.38.38,1.94.26.56.6,1.03,1.03,1.41.43.38.92.67,1.48.86.56.19,1.14.29,1.75.29.48,0,.97-.07,1.46-.21.49-.14.95-.33,1.4-.59.44-.25.85-.56,1.24-.91.38-.36.71-.75.99-1.19s.5-.92.67-1.43c.16-.51.24-1.05.24-1.61v-11.74h3.01v20.25h-3.01Z"/>
    <path class="cls-1" d="M5822.41,468.42h-3.01v-13.23c0-.72-.13-1.35-.39-1.91-.26-.56-.61-1.02-1.03-1.4-.43-.38-.92-.66-1.48-.86-.56-.19-1.14-.29-1.73-.29-.48,0-.97.07-1.45.21-.48.14-.94.34-1.38.6-.44.26-.86.57-1.24.94-.38.37-.72.77-1,1.21s-.51.91-.67,1.41c-.16.5-.24,1.02-.24,1.57v11.74h-3.01v-20.25h3.01v2.6c.42-.46.87-.88,1.35-1.24.48-.37.98-.68,1.5-.93.52-.26,1.04-.45,1.58-.59.54-.14,1.07-.2,1.6-.2.64,0,1.27.07,1.89.21.62.14,1.21.35,1.78.63.56.28,1.09.62,1.57,1.03s.9.89,1.25,1.44c.35.55.63,1.16.82,1.84.2.68.3,1.42.3,2.24v13.23Z"/>
    <path class="cls-1" d="M5805.94,445.02v-2.83h13.63v-2.7h2.83v5.54h-16.47Z"/>
    <path class="cls-1" d="M5819.62,437.91v-5.54h2.79v5.54h-2.79Z"/>
    <path class="cls-1" d="M5840.51,468.42v-11.66c0-.9-.16-1.72-.48-2.46-.32-.74-.77-1.37-1.34-1.89-.57-.52-1.25-.93-2.05-1.21-.79-.29-1.66-.43-2.61-.43-.5,0-.99.06-1.47.19-.48.13-.94.31-1.39.53s-.87.49-1.26.8-.75.64-1.06,1l1.39,1.48v13.63h-4.96v-2.92h1.93v-9.72l-2.06-2.25c.48-.86,1.04-1.63,1.67-2.32.63-.69,1.33-1.28,2.08-1.77.75-.49,1.56-.86,2.42-1.13.86-.27,1.75-.4,2.69-.4,1.39,0,2.67.22,3.83.66,1.17.44,2.17,1.05,3.01,1.83.84.78,1.49,1.72,1.96,2.8s.7,2.27.7,3.57v11.66h-3.01Z"/>
    <path class="cls-1" d="M5858.82,468.42h-2.98v-12.82c0-1.55-.38-2.75-1.15-3.6-.77-.85-1.91-1.27-3.43-1.27-.4,0-.76.03-1.1.08-.34.05-.67.14-.98.27s-.62.31-.93.54c-.3.23-.62.52-.95.87l-2.06-2.07c.48-.45.96-.83,1.43-1.15.47-.32.95-.58,1.44-.79.49-.2,1-.35,1.53-.45.53-.09,1.09-.14,1.68-.14,1.3,0,2.42.2,3.36.59.94.39,1.72.92,2.34,1.59.62.67,1.07,1.45,1.37,2.34.3.89.45,1.83.45,2.82v13.18Z"/>
    <path class="cls-1" d="M5878.85,460.55c0,.75-.1,1.48-.3,2.17-.2.69-.48,1.34-.85,1.94-.37.6-.8,1.15-1.31,1.65-.51.49-1.07.92-1.7,1.27-.62.35-1.29.63-2.02.82-.72.19-1.47.29-2.25.29-.73,0-1.44-.09-2.13-.26-.68-.18-1.33-.43-1.93-.76-.6-.33-1.16-.73-1.66-1.2s-.95-.99-1.33-1.58c-.38-.58-.69-1.22-.92-1.9-.23-.68-.38-1.41-.44-2.18l3.01-3.02c-.4-.36-.76-.71-1.1-1.04s-.63-.69-.88-1.07c-.25-.37-.45-.78-.59-1.22-.14-.44-.21-.95-.21-1.52,0-.69.13-1.34.4-1.95.27-.61.63-1.15,1.1-1.6.47-.46,1.02-.82,1.65-1.09.63-.27,1.3-.4,2.02-.4.35,0,.7.03,1.03.1.34.07.68.18,1.02.34.34.16.7.36,1.05.62.36.25.74.56,1.13.92l-2.16,2.08c-.26-.23-.48-.41-.68-.56-.2-.15-.38-.26-.54-.35-.17-.08-.32-.14-.46-.18-.14-.03-.29-.05-.43-.05-.3,0-.58.05-.85.16-.26.11-.49.25-.69.44-.19.19-.35.41-.46.67-.11.26-.16.54-.16.85,0,.57.25,1.11.76,1.61l3.29,3.28-4.04,4.05c.15.57.38,1.1.71,1.58.33.48.72.89,1.18,1.24.46.35.97.62,1.54.81.57.19,1.17.29,1.8.29.75,0,1.46-.14,2.12-.42s1.23-.66,1.71-1.13c.49-.48.87-1.03,1.15-1.68.28-.64.42-1.32.42-2.04v-12.37h3.02v12.37Z"/>
    <path class="cls-1" d="M5896.09,468.42v-2.56c-.44.45-.9.85-1.4,1.2-.49.36-.99.66-1.51.91-.52.25-1.04.44-1.58.57-.54.13-1.07.2-1.59.2-.94,0-1.87-.16-2.77-.47s-1.71-.78-2.42-1.4c-.71-.62-1.28-1.39-1.71-2.31-.43-.92-.65-1.99-.65-3.2v-13.18h3.01v13.18c0,.73.13,1.38.38,1.94.26.56.6,1.03,1.03,1.41.43.38.92.67,1.48.86.56.19,1.14.29,1.75.29.48,0,.97-.07,1.46-.21s.95-.33,1.4-.59c.44-.25.86-.56,1.24-.91.38-.36.71-.75.99-1.19.28-.44.5-.92.66-1.43.16-.51.24-1.05.24-1.61v-11.74h3.01v20.25h-3.01Z"/>
    <path class="cls-1" d="M5922.09,458.25c0,.94-.11,1.85-.32,2.74s-.52,1.72-.92,2.5c-.4.78-.89,1.49-1.46,2.14-.57.65-1.23,1.21-1.96,1.68s-1.53.83-2.41,1.09c-.87.26-1.8.39-2.79.39-1.05,0-2.03-.14-2.96-.43s-1.77-.69-2.53-1.2c-.77-.52-1.45-1.13-2.04-1.85-.6-.71-1.09-1.5-1.47-2.36s-.66-1.77-.83-2.74c-.17-.97-.21-1.97-.11-2.99h10.03v2.88h-6.83c.17.82.45,1.58.84,2.29.39.71.88,1.32,1.46,1.85.58.52,1.24.93,1.99,1.23.75.3,1.57.45,2.46.45.99,0,1.9-.2,2.74-.59.84-.39,1.56-.93,2.17-1.62.61-.68,1.08-1.49,1.42-2.43.34-.93.51-1.94.51-3.03s-.17-2.11-.49-3.04c-.33-.94-.79-1.75-1.39-2.44-.6-.69-1.32-1.23-2.16-1.62-.84-.39-1.78-.59-2.8-.59-.73,0-1.43.11-2.1.32-.67.21-1.29.53-1.87.96-.57.42-1.09.96-1.56,1.59-.46.64-.85,1.38-1.17,2.22l-2.79-1.18c.44-1.07.98-2.02,1.61-2.86.63-.84,1.35-1.55,2.16-2.13.8-.58,1.69-1.03,2.65-1.33s1.99-.46,3.08-.46c1.02,0,1.97.13,2.85.39.88.26,1.69.63,2.42,1.1.73.47,1.38,1.03,1.95,1.69.57.65,1.04,1.37,1.43,2.15.39.78.68,1.62.89,2.5.21.89.31,1.8.31,2.74Z"/>
    <path class="cls-1" d="M5942.29,468.42h-3.01v-11.66c0-.9-.16-1.72-.48-2.46-.32-.74-.77-1.37-1.34-1.89-.57-.52-1.25-.93-2.05-1.21-.79-.29-1.67-.43-2.61-.43-.5,0-.99.06-1.47.19-.48.13-.94.31-1.38.53s-.86.49-1.24.8-.73.64-1.04,1l1.35,1.48v13.63h-3.01v-12.65l-2.08-2.25c.48-.86,1.05-1.63,1.69-2.32.64-.69,1.34-1.28,2.1-1.77.76-.49,1.57-.86,2.42-1.13.85-.27,1.74-.4,2.65-.4,1.39,0,2.67.22,3.83.66,1.17.44,2.17,1.05,3,1.83.84.78,1.49,1.72,1.96,2.8.47,1.08.7,2.27.7,3.57v11.66Z"/>
    <path class="cls-1" d="M5962.54,460.59c0,.75-.1,1.48-.3,2.17-.2.69-.48,1.34-.84,1.94-.36.6-.8,1.15-1.3,1.64-.5.49-1.07.91-1.69,1.26s-1.28.62-1.99.81c-.71.19-1.44.29-2.2.29s-1.51-.1-2.21-.29c-.71-.19-1.37-.46-1.99-.81-.62-.35-1.18-.77-1.69-1.26-.5-.49-.94-1.04-1.3-1.64-.36-.6-.64-1.25-.84-1.94-.2-.7-.3-1.42-.3-2.16v-12.42h3.01v12.42c0,.71.13,1.38.41,2,.27.63.64,1.17,1.12,1.64s1.04.84,1.69,1.11c.65.27,1.35.41,2.1.41s1.4-.14,2.04-.41c.64-.27,1.21-.65,1.69-1.11.48-.47.87-1.02,1.15-1.64.28-.63.42-1.29.42-2v-12.42h3.01v12.42Z"/>
    <path class="cls-1" d="M5954.08,445.07c.1-.13.22-.3.36-.5.15-.2.3-.41.47-.63.16-.22.33-.44.49-.67.17-.23.31-.44.45-.63.13-.19.24-.35.32-.49s.12-.23.12-.27c0-.25-.07-.44-.22-.57-.15-.13-.34-.19-.59-.19-.23,0-.41.09-.54.26l-1.85-1.85c.37-.36.75-.61,1.16-.76.41-.15.83-.23,1.26-.23.49,0,.96.08,1.42.25.45.17.84.39,1.17.68s.56.62.7,1.01c.14.38.16.79.04,1.23l-.18.63h5.67v2.7l-10.26.04Z"/>
    <path class="cls-1" d="M5977.85,468.42h-2.98v-12.82c0-1.55-.38-2.75-1.15-3.6-.77-.85-1.91-1.27-3.43-1.27-.4,0-.76.03-1.1.08-.34.05-.67.14-.98.27-.32.13-.62.31-.93.54-.3.23-.62.52-.95.87l-2.07-2.07c.48-.45.96-.83,1.43-1.15.47-.32.95-.58,1.44-.79.49-.2,1-.35,1.53-.45.53-.09,1.09-.14,1.68-.14,1.3,0,2.42.2,3.36.59.94.39,1.72.92,2.34,1.59.62.67,1.07,1.45,1.37,2.34.3.89.45,1.83.45,2.82v13.18Z"/>
    <path class="cls-1" d="M5995.08,468.42v-2.56c-.44.45-.9.85-1.4,1.2-.49.36-.99.66-1.51.91-.52.25-1.04.44-1.58.57s-1.07.2-1.59.2c-.95,0-1.87-.16-2.77-.47-.91-.31-1.71-.78-2.42-1.4-.71-.62-1.28-1.39-1.71-2.31-.43-.92-.65-1.99-.65-3.2v-13.18h3.01v13.18c0,.73.13,1.38.38,1.94.26.56.6,1.03,1.03,1.41.43.38.92.67,1.48.86.56.19,1.14.29,1.75.29.48,0,.97-.07,1.46-.21.49-.14.95-.33,1.4-.59.44-.25.85-.56,1.24-.91.38-.36.71-.75.99-1.19s.5-.92.67-1.43c.16-.51.24-1.05.24-1.61v-11.74h3.01v20.25h-3.01Z"/>
    <path class="cls-1" d="M6018.34,468.42h-3.01v-13.23c0-.72-.13-1.35-.39-1.91s-.6-1.02-1.03-1.4c-.43-.38-.92-.66-1.48-.86-.56-.19-1.14-.29-1.73-.29-.48,0-.96.07-1.45.21-.48.14-.94.34-1.38.6-.44.26-.86.57-1.24.94s-.72.77-1.01,1.21c-.29.44-.51.91-.67,1.41-.16.5-.24,1.02-.24,1.57v11.74h-3.01v-20.25h3.01v2.6c.42-.46.87-.88,1.35-1.24.48-.37.98-.68,1.5-.93.52-.26,1.04-.45,1.58-.59.54-.14,1.07-.2,1.6-.2.64,0,1.27.07,1.89.21.62.14,1.21.35,1.78.63s1.09.62,1.57,1.03c.48.41.89.89,1.25,1.44.35.55.63,1.16.82,1.84.2.68.3,1.42.3,2.24v13.23Z"/>
    <path class="cls-1" d="M6001.87,445.02v-2.83h13.63v-2.7h2.83v5.54h-16.47Z"/>
    <path class="cls-1" d="M6015.55,437.91v-5.54h2.79v5.54h-2.79Z"/>
    <path class="cls-1" d="M6022.62,468.42v-20.25h3.02v20.25h-3.02Z"/>
    <path class="cls-1" d="M6047.72,468.42h-3.01v-10.09c0-.44-.08-.84-.25-1.21-.17-.37-.39-.69-.68-.97s-.6-.51-.97-.69c-.36-.18-.74-.29-1.13-.35-.39-.05-.78-.04-1.17.04-.39.08-.75.24-1.08.48l-5.86,4.14v8.64h-3.01v-20.25h3.01v8.14l12.11-8.55,1.76,2.21-3.87,2.74c.63.24,1.2.55,1.71.93.51.38.94.82,1.3,1.31.36.49.64,1.04.83,1.63.19.59.29,1.22.29,1.89v9.94Z"/>
    <path class="cls-1" d="M6067.97,461.36c0,.81-.1,1.56-.3,2.24-.2.68-.47,1.29-.82,1.83-.35.55-.77,1.03-1.25,1.44-.48.41-1,.76-1.57,1.04-.56.28-1.16.49-1.78.63-.62.14-1.25.21-1.89.21-.53,0-1.06-.07-1.59-.2-.53-.13-1.05-.32-1.56-.57-.51-.25-1.01-.55-1.49-.91-.49-.35-.95-.76-1.39-1.2v2.56h-3.01v-20.25h3.01v11.74c0,.54.08,1.06.24,1.57.16.5.38.97.67,1.41.29.44.62.84,1.01,1.21s.8.68,1.24.94c.44.26.9.46,1.38.6.48.14.96.21,1.45.21.59,0,1.17-.1,1.73-.29.56-.19,1.05-.48,1.48-.86.43-.38.77-.85,1.03-1.41.26-.56.39-1.21.39-1.94v-13.18h3.01v13.18Z"/>
    <path class="cls-1" d="M6083.27,468.42h-2.98v-12.82c0-1.55-.38-2.75-1.15-3.6-.77-.85-1.91-1.27-3.43-1.27-.4,0-.76.03-1.1.08-.34.05-.67.14-.98.27-.32.13-.62.31-.93.54s-.62.52-.95.87l-2.07-2.07c.48-.45.96-.83,1.43-1.15.47-.32.95-.58,1.44-.79.49-.2,1-.35,1.53-.45.53-.09,1.09-.14,1.68-.14,1.3,0,2.42.2,3.36.59.94.39,1.72.92,2.34,1.59.62.67,1.07,1.45,1.37,2.34.3.89.44,1.83.44,2.82v13.18Z"/>
    <path class="cls-1" d="M6089.66,455.5c-.45,0-.88-.09-1.27-.26-.39-.17-.73-.41-1.03-.7-.29-.3-.52-.64-.69-1.03-.17-.39-.25-.8-.25-1.24v-1.63h2.83v1.63c0,.11.04.2.13.28.08.08.16.12.24.12h3.69v2.79l-3.65.04ZM6089.66,466.49c-.45,0-.88-.09-1.27-.26-.39-.17-.73-.41-1.03-.7-.29-.3-.52-.64-.69-1.03-.17-.39-.25-.81-.25-1.25v-1.61h2.83v1.61c0,.11.04.21.13.29s.16.12.24.12h3.69v2.83h-3.65Z"/>
    <path class="cls-1" d="M6111.26,451.01c.5.61.87,1.29,1.12,2.04.25.75.37,1.57.37,2.45v12.92h-2.97v-5.62c0-.78-.15-1.46-.45-2.04s-.7-1.07-1.2-1.46c-.5-.39-1.07-.68-1.71-.88-.64-.2-1.3-.3-1.99-.3s-1.32.1-1.95.3c-.63.2-1.18.5-1.65.89-.48.39-.86.88-1.14,1.46-.29.58-.43,1.26-.43,2.03,0,.72.18,1.41.54,2.08.36.67.96,1.33,1.8,1.98l-2.08,2.15c-1.11-.88-1.93-1.84-2.47-2.88-.54-1.04-.81-2.15-.81-3.33,0-.78.11-1.5.32-2.19.21-.68.51-1.31.88-1.87.38-.57.82-1.07,1.34-1.52.52-.44,1.08-.82,1.69-1.13.61-.31,1.25-.54,1.92-.7s1.36-.24,2.04-.24c.93,0,1.85.13,2.76.4s1.77.7,2.59,1.31v-1.35c0-.75-.16-1.42-.47-2-.32-.58-.73-1.07-1.24-1.47-.51-.4-1.09-.7-1.74-.9s-1.32-.31-1.99-.31c-.63,0-1.24.08-1.82.25-.58.17-1.11.44-1.58.8-.47.37-.87.84-1.2,1.41-.33.58-.55,1.27-.68,2.08h-3.01c.08-.88.25-1.67.52-2.38.27-.71.6-1.34,1.01-1.9.4-.55.86-1.03,1.38-1.43.52-.4,1.07-.73,1.65-.99.59-.26,1.2-.45,1.83-.58.63-.12,1.27-.19,1.89-.19.79,0,1.56.09,2.32.27.75.18,1.49.47,2.22.86l2.53-2.75,2.34,2.02-2.48,2.7Z"/>
    <path class="cls-1" d="M6133,461.36c0,.81-.1,1.56-.3,2.24-.2.68-.47,1.29-.82,1.83-.35.55-.77,1.03-1.25,1.44-.48.41-1,.76-1.57,1.04-.56.28-1.16.49-1.78.63-.62.14-1.25.21-1.89.21-.53,0-1.06-.07-1.59-.2s-1.05-.32-1.56-.57c-.51-.25-1.01-.55-1.49-.91-.49-.35-.95-.76-1.39-1.2v2.56h-3.01v-20.25h3.01v11.74c0,.54.08,1.06.24,1.57.16.5.38.97.67,1.41.29.44.62.84,1,1.21.38.37.8.68,1.24.94.44.26.9.46,1.38.6.48.14.96.21,1.44.21.59,0,1.17-.1,1.73-.29.56-.19,1.05-.48,1.48-.86.43-.38.77-.85,1.03-1.41.26-.56.39-1.21.39-1.94v-13.18h3.01v13.18Z"/>
    <path class="cls-1" d="M5740.56,498.01c.5.61.87,1.29,1.11,2.04.25.75.37,1.57.37,2.45v12.92h-2.97v-5.62c0-.78-.15-1.46-.45-2.04-.3-.59-.7-1.07-1.2-1.46-.5-.39-1.07-.68-1.71-.88-.64-.2-1.31-.3-1.99-.3s-1.32.1-1.95.3c-.63.2-1.18.5-1.65.89-.48.39-.86.88-1.14,1.46-.29.58-.43,1.26-.43,2.03,0,.72.18,1.41.54,2.08.36.67.96,1.33,1.8,1.98l-2.08,2.15c-1.11-.88-1.93-1.84-2.47-2.88s-.81-2.15-.81-3.33c0-.78.11-1.5.32-2.19.21-.68.51-1.31.88-1.87.38-.57.82-1.07,1.34-1.52.52-.44,1.08-.82,1.69-1.13s1.25-.54,1.92-.7c.67-.16,1.35-.24,2.04-.24.93,0,1.85.13,2.76.4.91.26,1.78.7,2.59,1.31v-1.35c0-.75-.16-1.42-.47-2-.31-.58-.73-1.07-1.24-1.47-.51-.4-1.09-.7-1.74-.9-.65-.21-1.32-.31-1.99-.31-.63,0-1.24.08-1.82.25-.58.17-1.11.44-1.58.8-.47.37-.87.84-1.2,1.41-.33.58-.55,1.27-.68,2.08h-3.01c.08-.88.25-1.67.52-2.38.27-.71.6-1.34,1-1.9.4-.55.86-1.03,1.38-1.43.52-.4,1.07-.73,1.65-.99.59-.26,1.2-.45,1.83-.58.63-.12,1.27-.19,1.9-.19.79,0,1.56.09,2.32.27.75.18,1.49.47,2.22.86l2.53-2.75,2.34,2.02-2.48,2.7Z"/>
    <path class="cls-1" d="M5743.76,489.55c0,.44-.08.85-.25,1.24s-.4.73-.69,1.02c-.29.29-.64.52-1.03.69-.4.17-.82.25-1.26.25s-.88-.08-1.27-.25c-.39-.17-.73-.4-1.03-.69-.29-.29-.52-.63-.69-1.02s-.25-.8-.25-1.24.08-.87.25-1.26.4-.74.69-1.03.64-.52,1.03-.69c.39-.17.82-.25,1.27-.25s.87.08,1.26.25c.39.17.74.4,1.03.69s.52.64.69,1.03.25.82.25,1.26ZM5741.55,489.55c0-.29-.1-.54-.3-.74-.2-.2-.44-.3-.74-.3-.15,0-.28.03-.41.08-.13.05-.24.12-.34.22s-.18.21-.24.33-.09.26-.09.41.03.28.09.41c.06.13.14.24.24.34.1.1.21.18.34.24.13.06.27.09.41.09s.28-.03.41-.09.23-.14.33-.24c.09-.1.17-.21.22-.34.05-.13.08-.27.08-.41Z"/>
    <path class="cls-1" d="M5757.35,515.42h-2.98v-12.82c0-1.55-.38-2.75-1.15-3.6-.77-.85-1.91-1.27-3.43-1.27-.39,0-.76.03-1.1.08-.34.05-.67.14-.98.27-.32.13-.62.31-.93.54-.3.23-.62.52-.95.87l-2.07-2.07c.48-.45.96-.83,1.43-1.15.47-.32.95-.58,1.44-.79.49-.2,1-.35,1.53-.45.53-.09,1.09-.14,1.68-.14,1.3,0,2.42.2,3.36.59.95.39,1.72.92,2.34,1.59.62.67,1.07,1.45,1.37,2.34.3.89.44,1.83.44,2.82v13.18Z"/>
    <path class="cls-1" d="M5778.09,515.42h-3.01v-10.09c0-.44-.08-.84-.25-1.21-.17-.37-.39-.69-.68-.97-.28-.28-.6-.51-.97-.69-.36-.18-.74-.29-1.13-.35-.39-.05-.78-.04-1.17.04-.39.08-.75.24-1.08.48l-5.86,4.14v8.64h-3.01v-20.25h3.01v8.14l12.11-8.55,1.76,2.21-3.87,2.74c.63.24,1.2.55,1.71.93.51.38.94.82,1.3,1.31.36.49.63,1.04.83,1.63.19.59.29,1.22.29,1.89v9.94Z"/>
    <path class="cls-1" d="M5793.98,501.43c-.23-.72-.53-1.32-.88-1.81-.36-.49-.76-.88-1.21-1.18-.45-.3-.94-.51-1.48-.64-.54-.13-1.1-.19-1.69-.19s-1.18.07-1.7.2c-.52.14-.97.33-1.34.58-.37.25-.67.55-.87.91-.21.35-.31.75-.31,1.19,0,.31.11.58.34.79.23.21.54.39.93.54.39.15.85.28,1.37.38.52.11,1.08.21,1.66.32.59.11,1.19.23,1.81.36.62.13,1.23.3,1.81.49s1.14.44,1.67.73c.52.29.98.64,1.37,1.06.39.42.7.91.93,1.48.23.57.34,1.24.34,2s-.1,1.48-.31,2.14c-.21.66-.49,1.25-.86,1.77s-.79.99-1.29,1.4c-.49.41-1.03.75-1.6,1.02-.57.27-1.18.48-1.8.62s-1.25.21-1.88.21-1.21-.06-1.81-.19c-.61-.13-1.19-.32-1.76-.58-.56-.26-1.1-.58-1.6-.98-.5-.4-.95-.86-1.33-1.39-.39-.53-.71-1.14-.96-1.81-.25-.68-.4-1.43-.46-2.26l2.89-.99c.09.97.28,1.79.57,2.46.29.67.66,1.21,1.1,1.63.44.42.95.72,1.52.91.57.19,1.17.28,1.81.28s1.29-.09,1.87-.28c.58-.19,1.08-.46,1.51-.82.43-.36.77-.81,1.02-1.33.25-.52.37-1.12.37-1.8,0-.51-.11-.94-.34-1.3-.23-.35-.54-.65-.93-.89-.39-.24-.85-.44-1.37-.6-.52-.16-1.07-.29-1.66-.41s-1.19-.23-1.8-.34c-.62-.11-1.22-.23-1.8-.37-.59-.14-1.14-.32-1.66-.53-.52-.21-.98-.47-1.37-.8s-.7-.71-.93-1.17c-.23-.46-.34-1.01-.34-1.66s.1-1.24.29-1.77c.19-.54.46-1.02.8-1.46.34-.43.73-.81,1.19-1.14.46-.33.95-.6,1.48-.82.53-.22,1.08-.38,1.66-.49.58-.11,1.16-.17,1.74-.17.82,0,1.64.1,2.47.3.82.2,1.6.52,2.32.97.72.45,1.38,1.03,1.95,1.75.58.72,1.03,1.61,1.36,2.65l-2.79,1.03Z"/>
    <path class="cls-1" d="M5788.27,492.07c-.44,0-.85-.09-1.24-.26-.39-.17-.73-.41-1.02-.7-.29-.3-.52-.64-.69-1.03-.17-.39-.25-.81-.25-1.25v-1.85h2.83v1.85c0,.24.12.36.36.36h9.99v2.83l-9.99.04Z"/>
    <path class="cls-1" d="M5816.7,507.59c0,.75-.1,1.48-.3,2.17-.2.69-.48,1.34-.84,1.94-.36.6-.8,1.15-1.3,1.64s-1.07.91-1.69,1.26c-.62.35-1.28.62-1.99.81-.71.19-1.44.29-2.2.29s-1.51-.1-2.21-.29c-.71-.19-1.37-.46-1.99-.81s-1.18-.77-1.69-1.26-.94-1.04-1.3-1.64c-.36-.6-.64-1.25-.84-1.94-.2-.7-.3-1.42-.3-2.16v-12.42h3.01v12.42c0,.71.13,1.38.41,2,.27.63.64,1.17,1.12,1.64.48.47,1.04.84,1.69,1.11.65.27,1.35.41,2.1.41s1.4-.14,2.04-.41c.64-.27,1.21-.65,1.69-1.11s.87-1.02,1.15-1.64c.28-.63.42-1.29.42-2v-12.42h3.01v12.42Z"/>
    <path class="cls-1" d="M5837.4,515.42h-3.01v-11.66c0-.9-.16-1.72-.48-2.46-.32-.74-.77-1.37-1.34-1.89-.57-.52-1.25-.93-2.05-1.21-.79-.29-1.66-.43-2.61-.43-.5,0-.99.06-1.47.19-.48.13-.94.31-1.38.53-.44.23-.86.49-1.24.8-.38.31-.73.64-1.04,1l1.35,1.48v13.63h-3.01v-12.65l-2.08-2.25c.48-.86,1.05-1.63,1.69-2.32.64-.69,1.34-1.28,2.1-1.77.76-.49,1.57-.86,2.42-1.13.85-.27,1.74-.4,2.65-.4,1.39,0,2.67.22,3.83.66,1.17.44,2.17,1.05,3,1.83s1.49,1.72,1.96,2.8.7,2.27.7,3.57v11.66Z"/>
    <path class="cls-1" d="M5852.7,515.42h-2.98v-12.82c0-1.55-.38-2.75-1.15-3.6-.77-.85-1.91-1.27-3.43-1.27-.4,0-.76.03-1.1.08-.34.05-.67.14-.98.27-.32.13-.62.31-.93.54s-.62.52-.95.87l-2.07-2.07c.48-.45.96-.83,1.43-1.15.47-.32.95-.58,1.44-.79.49-.2,1-.35,1.53-.45.53-.09,1.09-.14,1.68-.14,1.3,0,2.42.2,3.36.59.94.39,1.72.92,2.34,1.59.62.67,1.07,1.45,1.37,2.34.3.89.44,1.83.44,2.82v13.18Z"/>
    <path class="cls-1" d="M5868.59,501.43c-.23-.72-.53-1.32-.88-1.81-.36-.49-.76-.88-1.21-1.18-.45-.3-.94-.51-1.48-.64-.53-.13-1.1-.19-1.69-.19s-1.18.07-1.7.2c-.52.14-.97.33-1.34.58-.37.25-.66.55-.87.91-.21.35-.31.75-.31,1.19,0,.31.11.58.34.79.23.21.54.39.93.54.39.15.85.28,1.37.38.52.11,1.08.21,1.67.32.59.11,1.19.23,1.81.36.62.13,1.23.3,1.81.49s1.14.44,1.66.73c.52.29.98.64,1.37,1.06.39.42.7.91.93,1.48.23.57.34,1.24.34,2s-.11,1.48-.31,2.14c-.21.66-.5,1.25-.86,1.77-.36.53-.79.99-1.29,1.4-.49.41-1.03.75-1.6,1.02-.57.27-1.17.48-1.8.62-.63.14-1.25.21-1.88.21s-1.21-.06-1.81-.19c-.61-.13-1.19-.32-1.76-.58s-1.1-.58-1.6-.98c-.5-.4-.95-.86-1.33-1.39-.39-.53-.71-1.14-.96-1.81-.25-.68-.4-1.43-.46-2.26l2.89-.99c.09.97.28,1.79.57,2.46.29.67.66,1.21,1.1,1.63.44.42.95.72,1.52.91.57.19,1.17.28,1.81.28s1.29-.09,1.87-.28c.58-.19,1.08-.46,1.51-.82.43-.36.77-.81,1.02-1.33.25-.52.37-1.12.37-1.8,0-.51-.11-.94-.34-1.3s-.54-.65-.93-.89c-.39-.24-.85-.44-1.37-.6-.52-.16-1.07-.29-1.66-.41s-1.19-.23-1.8-.34c-.62-.11-1.22-.23-1.8-.37-.59-.14-1.14-.32-1.66-.53-.52-.21-.98-.47-1.37-.8-.39-.32-.7-.71-.93-1.17-.23-.46-.34-1.01-.34-1.66s.1-1.24.29-1.77c.19-.54.46-1.02.8-1.46s.73-.81,1.19-1.14c.46-.33.95-.6,1.48-.82.53-.22,1.08-.38,1.66-.49.58-.11,1.16-.17,1.74-.17.82,0,1.64.1,2.47.3.82.2,1.6.52,2.32.97s1.38,1.03,1.95,1.75c.58.72,1.03,1.61,1.36,2.65l-2.79,1.03Z"/>
    <path class="cls-1" d="M5889.42,515.42v-13.14c0-.89-.19-1.67-.58-2.35-.39-.68-.91-1.23-1.57-1.66l-3.47,2.83-3.5-2.88c-.46.31-.89.69-1.3,1.15-.4.46-.76.99-1.06,1.61s-.54,1.31-.71,2.09-.26,1.64-.26,2.58c0,1.01.12,1.95.36,2.81.24.86.58,1.61,1.02,2.24s.97,1.12,1.59,1.48c.62.35,1.31.53,2.07.53.17,0,.33-.02.49-.05.16-.03.33-.1.5-.19.17-.09.36-.22.57-.38.21-.17.44-.38.69-.63l2.16,2.07c-.75.7-1.48,1.22-2.2,1.56-.72.34-1.46.51-2.21.51-1.32,0-2.48-.26-3.48-.77-1-.51-1.84-1.22-2.52-2.11s-1.19-1.94-1.53-3.15c-.34-1.21-.52-2.51-.52-3.91s.17-2.76.5-3.94c.33-1.18.8-2.22,1.39-3.12.6-.9,1.31-1.67,2.15-2.3.83-.63,1.75-1.12,2.76-1.48l3.05,2.52,3.07-2.52c.84.31,1.6.71,2.29,1.18.68.47,1.26,1.02,1.75,1.64.48.62.86,1.31,1.12,2.07.26.76.39,1.59.39,2.49v13.23h-2.98Z"/>
    <path class="cls-1" d="M5875.97,492.02v-2.83h16.47v2.83h-16.47Z"/>
    <path class="cls-1" d="M5910.62,515.42v-12.65c0-.65-.11-1.25-.34-1.79s-.54-1.02-.93-1.43c-.39-.41-.85-.76-1.37-1.03-.52-.27-1.08-.47-1.66-.6s-1.19-.17-1.81-.12c-.62.04-1.23.18-1.81.4-.59.22-1.14.54-1.66.95-.52.41-.98.93-1.37,1.55-.39.62-.7,1.35-.93,2.19s-.34,1.79-.34,2.86c0,1,.12,1.93.36,2.78.24.85.59,1.59,1.03,2.21.45.62.99,1.1,1.62,1.46.63.35,1.34.53,2.11.53.19,0,.37-.02.53-.06.17-.04.34-.1.51-.19.18-.09.37-.22.58-.37.21-.16.45-.35.72-.59l2.15,2.07c-.78.7-1.53,1.21-2.25,1.55-.71.34-1.46.51-2.25.51-1.35,0-2.54-.26-3.57-.77s-1.88-1.21-2.56-2.1c-.68-.89-1.2-1.94-1.55-3.14-.35-1.2-.52-2.5-.52-3.88,0-1.27.13-2.42.39-3.44.26-1.03.62-1.94,1.08-2.75.46-.8,1.01-1.5,1.63-2.08.63-.59,1.3-1.07,2.03-1.45.73-.38,1.49-.66,2.29-.85.8-.18,1.6-.27,2.4-.27.71,0,1.42.08,2.11.24s1.37.39,2,.7c.63.3,1.22.68,1.76,1.13.54.45,1.01.96,1.41,1.54.39.58.71,1.21.93,1.91.22.7.33,1.46.33,2.27v12.73h-3.05Z"/>
    <path class="cls-1" d="M5932.03,515.42v-13.14c0-.89-.19-1.67-.58-2.35-.39-.68-.91-1.23-1.57-1.66l-3.47,2.83-3.5-2.88c-.46.31-.89.69-1.3,1.15-.4.46-.76.99-1.06,1.61-.3.62-.54,1.31-.71,2.09-.17.78-.26,1.64-.26,2.58,0,1.01.12,1.95.36,2.81s.58,1.61,1.02,2.24.97,1.12,1.59,1.48c.62.35,1.31.53,2.07.53.17,0,.33-.02.49-.05.16-.03.33-.1.5-.19.17-.09.36-.22.57-.38.21-.17.44-.38.69-.63l2.16,2.07c-.75.7-1.48,1.22-2.2,1.56-.72.34-1.46.51-2.21.51-1.32,0-2.48-.26-3.48-.77-1-.51-1.84-1.22-2.52-2.11-.68-.89-1.19-1.94-1.53-3.15-.34-1.21-.52-2.51-.52-3.91s.17-2.76.5-3.94c.33-1.18.8-2.22,1.4-3.12.6-.9,1.31-1.67,2.15-2.3.84-.63,1.75-1.12,2.76-1.48l3.05,2.52,3.06-2.52c.84.31,1.6.71,2.29,1.18.68.47,1.26,1.02,1.75,1.64.48.62.86,1.31,1.12,2.07.26.76.39,1.59.39,2.49v13.23h-2.98Z"/>
    <path class="cls-1" d="M5926.87,492.07c-.44,0-.85-.09-1.24-.26-.39-.17-.73-.41-1.02-.7-.29-.3-.52-.64-.69-1.03-.17-.39-.25-.81-.25-1.25v-1.85h2.83v1.85c0,.24.12.36.36.36h9.99v2.83l-9.99.04Z"/>
    <path class="cls-1" d="M5926.83,484.96c.08-.12.19-.29.32-.49.14-.2.28-.42.43-.64.15-.23.31-.46.46-.69.15-.23.29-.45.42-.65.12-.2.23-.37.31-.51.08-.14.12-.23.12-.26,0-.54-.21-.81-.63-.81-.23,0-.44.09-.64.27l-1.8-1.8c.69-.63,1.49-.95,2.39-.95.48,0,.96.09,1.42.26.46.17.86.4,1.19.69.33.29.58.63.73,1.02s.16.8.03,1.23l-.19.63c.07,0,.16,0,.26-.02s.24-.02.42-.02h4.77v2.75h-10.03Z"/>
    <path class="cls-1" d="M5951.8,511.28c0,.62-.11,1.19-.34,1.73-.23.54-.54,1.01-.94,1.41-.4.4-.87.71-1.42.94-.54.23-1.13.34-1.76.34-.45,0-.88-.06-1.29-.19-.41-.13-.79-.31-1.14-.54-.35-.23-.66-.51-.93-.82-.27-.32-.5-.67-.69-1.06l-5.81-12.28,2.79-1.09,5.77,12.25c.11.25.27.44.48.57.21.13.48.19.82.19.21,0,.41-.04.58-.11s.33-.17.46-.3c.13-.12.23-.27.3-.44.07-.17.1-.35.1-.54v-13.23h-2.79v-2.92h5.81v16.11Z"/>
    <path class="cls-1" d="M5969.89,515.42v-11.66c0-.9-.16-1.72-.48-2.46-.32-.74-.77-1.37-1.34-1.89-.57-.52-1.25-.93-2.05-1.21-.79-.29-1.66-.43-2.61-.43-.5,0-.99.06-1.47.19-.48.13-.94.31-1.39.53-.45.23-.87.49-1.26.8-.39.31-.74.64-1.06,1l1.4,1.48v13.63h-4.96v-2.92h1.93v-9.72l-2.07-2.25c.48-.86,1.04-1.63,1.67-2.32.63-.69,1.33-1.28,2.08-1.77.75-.49,1.56-.86,2.42-1.13.86-.27,1.75-.4,2.69-.4,1.39,0,2.67.22,3.83.66s2.17,1.05,3,1.83,1.49,1.72,1.96,2.8c.46,1.08.7,2.27.7,3.57v11.66h-3.01Z"/>
    <path class="cls-1" d="M5988.21,515.42h-2.98v-12.82c0-1.55-.38-2.75-1.15-3.6-.77-.85-1.91-1.27-3.43-1.27-.4,0-.76.03-1.1.08-.34.05-.67.14-.98.27-.32.13-.62.31-.93.54s-.62.52-.95.87l-2.07-2.07c.48-.45.96-.83,1.43-1.15.47-.32.95-.58,1.44-.79.49-.2,1-.35,1.53-.45.53-.09,1.09-.14,1.68-.14,1.3,0,2.42.2,3.36.59.94.39,1.72.92,2.34,1.59.62.67,1.07,1.45,1.37,2.34.3.89.44,1.83.44,2.82v13.18Z"/>
    <path class="cls-1" d="M6008.23,507.55c0,.75-.1,1.48-.3,2.17-.2.69-.48,1.34-.85,1.94-.37.6-.8,1.15-1.31,1.65-.51.49-1.08.92-1.7,1.27-.62.35-1.29.63-2.02.82-.72.19-1.47.29-2.25.29-.73,0-1.44-.09-2.12-.26-.69-.18-1.33-.43-1.93-.76-.61-.33-1.16-.73-1.67-1.2s-.95-.99-1.33-1.58c-.38-.58-.69-1.22-.92-1.9-.24-.68-.38-1.41-.44-2.18l3.01-3.02c-.4-.36-.76-.71-1.1-1.04s-.63-.69-.88-1.07c-.25-.37-.45-.78-.59-1.22-.14-.44-.21-.95-.21-1.52,0-.69.13-1.34.4-1.95.27-.61.64-1.15,1.1-1.6.47-.46,1.02-.82,1.65-1.09.63-.27,1.3-.4,2.02-.4.35,0,.7.03,1.03.1.34.07.68.18,1.02.34.34.16.7.36,1.05.62.36.25.74.56,1.13.92l-2.16,2.08c-.26-.23-.48-.41-.68-.56-.2-.15-.38-.26-.54-.35-.16-.08-.32-.14-.46-.18-.14-.03-.29-.05-.43-.05-.3,0-.58.05-.85.16-.26.11-.49.25-.69.44-.19.19-.35.41-.46.67-.11.26-.17.54-.17.85,0,.57.25,1.11.76,1.61l3.28,3.28-4.04,4.05c.15.57.38,1.1.71,1.58.33.48.72.89,1.18,1.24.46.35.97.62,1.54.81s1.17.29,1.8.29c.75,0,1.46-.14,2.12-.42.66-.28,1.23-.66,1.71-1.13.49-.48.87-1.03,1.15-1.68.28-.64.42-1.32.42-2.04v-12.37h3.02v12.37Z"/>
    <path class="cls-1" d="M6025.47,515.42v-2.56c-.44.45-.9.85-1.4,1.2-.49.36-.99.66-1.51.91-.52.25-1.04.44-1.58.57s-1.07.2-1.59.2c-.95,0-1.87-.16-2.77-.47-.91-.31-1.71-.78-2.42-1.4-.71-.62-1.28-1.39-1.71-2.31-.43-.92-.65-1.99-.65-3.2v-13.18h3.01v13.18c0,.73.13,1.38.38,1.94.26.56.6,1.03,1.03,1.41.43.38.92.67,1.48.86.56.19,1.14.29,1.75.29.48,0,.97-.07,1.46-.21.49-.14.95-.33,1.4-.59.44-.25.85-.56,1.24-.91.38-.36.71-.75.99-1.19s.5-.92.67-1.43c.16-.51.24-1.05.24-1.61v-11.74h3.01v20.25h-3.01Z"/>
    <path class="cls-1" d="M6051.48,505.25c0,.94-.11,1.85-.32,2.74-.21.89-.52,1.72-.92,2.5-.4.78-.89,1.49-1.46,2.14-.58.65-1.23,1.21-1.96,1.68s-1.54.83-2.41,1.09c-.87.26-1.8.39-2.79.39-1.05,0-2.03-.14-2.96-.43-.92-.29-1.77-.69-2.53-1.2-.76-.52-1.45-1.13-2.04-1.85-.6-.71-1.09-1.5-1.47-2.36-.38-.86-.66-1.77-.83-2.74-.17-.97-.21-1.97-.11-2.99h10.03v2.88h-6.83c.17.82.45,1.58.84,2.29.39.71.88,1.32,1.46,1.85.58.52,1.24.93,1.99,1.23.75.3,1.57.45,2.46.45.99,0,1.9-.2,2.74-.59.84-.39,1.56-.93,2.17-1.62.61-.68,1.08-1.49,1.42-2.43.34-.93.51-1.94.51-3.03s-.17-2.11-.5-3.04c-.33-.94-.79-1.75-1.39-2.44-.6-.69-1.32-1.23-2.16-1.62-.84-.39-1.78-.59-2.8-.59-.73,0-1.43.11-2.1.32s-1.29.53-1.87.96c-.58.42-1.1.96-1.56,1.59-.46.64-.86,1.38-1.17,2.22l-2.79-1.18c.44-1.07.98-2.02,1.61-2.86.63-.84,1.35-1.55,2.16-2.13.8-.58,1.69-1.03,2.65-1.33.96-.31,1.99-.46,3.08-.46,1.02,0,1.97.13,2.85.39.88.26,1.69.63,2.42,1.1.73.47,1.38,1.03,1.95,1.69.57.65,1.04,1.37,1.43,2.15.39.78.68,1.62.89,2.5.21.89.31,1.8.31,2.74Z"/>
    <path class="cls-1" d="M6071.68,515.42h-3.01v-11.66c0-.9-.16-1.72-.48-2.46-.32-.74-.77-1.37-1.34-1.89-.57-.52-1.25-.93-2.05-1.21-.79-.29-1.66-.43-2.61-.43-.5,0-.99.06-1.47.19-.48.13-.94.31-1.38.53-.44.23-.86.49-1.24.8s-.73.64-1.04,1l1.35,1.48v13.63h-3.01v-12.65l-2.08-2.25c.48-.86,1.04-1.63,1.69-2.32.64-.69,1.34-1.28,2.1-1.77.76-.49,1.57-.86,2.42-1.13.85-.27,1.74-.4,2.65-.4,1.39,0,2.67.22,3.83.66,1.17.44,2.17,1.05,3.01,1.83.84.78,1.49,1.72,1.96,2.8s.7,2.27.7,3.57v11.66Z"/>
    <path class="cls-1" d="M6091.93,507.59c0,.75-.1,1.48-.3,2.17-.2.69-.48,1.34-.84,1.94-.36.6-.8,1.15-1.3,1.64-.5.49-1.07.91-1.69,1.26s-1.28.62-1.99.81c-.71.19-1.44.29-2.2.29s-1.51-.1-2.21-.29c-.71-.19-1.37-.46-1.99-.81-.62-.35-1.18-.77-1.69-1.26s-.94-1.04-1.3-1.64c-.36-.6-.64-1.25-.84-1.94s-.3-1.42-.3-2.16v-12.42h3.01v12.42c0,.71.14,1.38.41,2,.27.63.64,1.17,1.12,1.64.48.47,1.04.84,1.69,1.11.65.27,1.35.41,2.1.41s1.4-.14,2.04-.41c.64-.27,1.21-.65,1.69-1.11s.87-1.02,1.15-1.64c.28-.63.42-1.29.42-2v-12.42h3.01v12.42Z"/>
    <path class="cls-1" d="M6083.47,492.07c.09-.13.22-.3.36-.5.15-.2.3-.41.47-.63s.33-.44.49-.67.31-.44.45-.63c.13-.19.24-.35.32-.49s.12-.23.12-.27c0-.25-.07-.44-.22-.57-.15-.13-.34-.19-.59-.19-.23,0-.41.09-.54.26l-1.85-1.85c.37-.36.75-.61,1.17-.76.41-.15.83-.23,1.26-.23.49,0,.96.08,1.42.25.46.17.84.39,1.17.68.33.29.56.62.7,1.01.14.38.16.79.04,1.23l-.18.63h5.67v2.7l-10.26.04Z"/>
    <path class="cls-1" d="M6107.23,515.42h-2.98v-12.82c0-1.55-.38-2.75-1.15-3.6-.77-.85-1.91-1.27-3.43-1.27-.4,0-.76.03-1.1.08-.34.05-.67.14-.98.27-.32.13-.62.31-.93.54s-.62.52-.95.87l-2.07-2.07c.48-.45.96-.83,1.43-1.15.47-.32.95-.58,1.44-.79.49-.2,1-.35,1.53-.45.53-.09,1.09-.14,1.68-.14,1.3,0,2.42.2,3.36.59.94.39,1.72.92,2.34,1.59.62.67,1.07,1.45,1.37,2.34.3.89.44,1.83.44,2.82v13.18Z"/>
    <path class="cls-1" d="M6124.47,515.42v-2.56c-.44.45-.9.85-1.39,1.2-.49.36-.99.66-1.51.91s-1.04.44-1.58.57c-.53.13-1.06.2-1.59.2-.95,0-1.87-.16-2.77-.47-.91-.31-1.71-.78-2.42-1.4-.71-.62-1.28-1.39-1.71-2.31-.43-.92-.65-1.99-.65-3.2v-13.18h3.01v13.18c0,.73.13,1.38.38,1.94.26.56.6,1.03,1.03,1.41.43.38.92.67,1.48.86.56.19,1.14.29,1.75.29.48,0,.97-.07,1.46-.21.49-.14.95-.33,1.4-.59.44-.25.85-.56,1.24-.91.38-.36.71-.75.99-1.19.28-.44.5-.92.67-1.43.16-.51.24-1.05.24-1.61v-11.74h3.01v20.25h-3.01Z"/>
  </g>
  <g>
    <path class="cls-5" d="M5291.14,81.41v.02l-186.44,111.75v191.4h.02s-.02.02-.02.02v256.74l372.87,112.87,186.44-111.75V193.18l-372.87-111.77Z"/>
    <polygon class="cls-5" points="5647.35 396.49 5296.69 291.38 5296.69 99.5 5647.35 204.61 5647.35 396.49"/>
    <polygon class="cls-5" points="5296.69 291.38 5121.35 396.48 5121.35 204.61 5296.69 99.51 5296.69 291.38"/>
    <polygon class="cls-10" points="5296.69 521.15 5121.35 626.24 5121.35 396.48 5296.69 291.38 5296.69 521.15"/>
    <polygon class="cls-10" points="5472.02 732.4 5121.35 626.24 5296.69 521.15 5647.35 627.3 5472.02 732.4"/>
    <polygon class="cls-5" points="5121.35 421.54 5121.35 403.08 5121.35 396.48 5472.02 502.63 5647.35 396.48 5647.35 403.08 5647.35 421.54 5472.02 527.7 5121.35 421.54"/>
    <polygon class="cls-5" points="5121.35 396.48 5296.69 291.38 5647.35 396.48 5472.02 502.63 5121.35 396.48"/>
    <polygon class="cls-5" points="5472.02 527.7 5121.35 421.54 5121.35 626.24 5472.02 732.4 5581.03 667.84 5581.03 462.09 5472.02 527.7"/>
    <polygon class="cls-5" points="5472.02 296.51 5121.35 190.35 5121.35 395.05 5472.02 501.21 5581.03 436.65 5581.03 230.9 5472.02 296.51"/>
    <polygon class="cls-5" points="5215.12 423.15 5215.12 361.81 5215.12 271.99 5150.57 252.45 5150.57 371.49 5150.57 403.61 5150.57 635.08 5215.12 654.62 5215.12 423.15"/>
  </g>
  <g>
    <g>
      <g>
        <polygon class="cls-4" points="5189.95 465.33 5257.84 654.3 5189.95 695.4 5189.95 633.95 5189.95 465.33"/>
        <polygon class="cls-4" points="5189.95 633.95 5189.95 695.4 5154.35 684.62 5154.35 623.28 5154.35 533.46 5089.8 513.92 5089.8 632.96 5089.8 665.08 5054.19 654.3 5054.19 424.24 5189.95 465.33 5189.95 633.95"/>
        <polygon class="cls-4" points="5257.84 424.24 5257.84 654.3 5189.95 465.33 5257.84 424.24"/>
        <path class="cls-4" d="M5257.84,424.24l-67.89,41.09-135.76-41.09,67.88-40.69,135.77,40.69ZM5179.45,452.68l46.87-28.38-93.74-28.09-46.87,28.09,93.74,28.38Z"/>
        <polygon class="cls-4" points="5226.32 424.3 5179.45 452.68 5085.71 424.3 5132.58 396.21 5226.32 424.3"/>
        <polygon class="cls-4" points="5154.35 684.62 5154.35 684.72 5089.8 665.18 5089.8 665.08 5089.8 632.96 5089.8 513.92 5154.35 533.46 5154.35 623.28 5154.35 684.62"/>
      </g>
      <g>
        <line class="cls-10" x1="5154.35" y1="684.62" x2="5189.95" y2="695.4"/>
        <line class="cls-10" x1="5054.19" y1="654.3" x2="5089.8" y2="665.08"/>
        <line class="cls-10" x1="5189.95" y1="695.4" x2="5257.84" y2="654.3"/>
        <line class="cls-10" x1="5189.95" y1="465.33" x2="5189.95" y2="633.95"/>
        <line class="cls-10" x1="5189.95" y1="695.4" x2="5189.95" y2="633.95"/>
        <line class="cls-10" x1="5257.84" y1="424.24" x2="5257.84" y2="654.3"/>
        <line class="cls-10" x1="5054.19" y1="424.24" x2="5054.19" y2="654.3"/>
        <polygon class="cls-10" points="5257.84 424.24 5122.07 383.55 5054.19 424.24 5189.95 465.33 5257.84 424.24"/>
        <polyline class="cls-10" points="5054.19 463.48 5189.95 504.57 5257.84 463.48"/>
        <polygon class="cls-10" points="5154.35 533.46 5089.8 513.92 5089.8 632.96 5089.8 665.08 5089.8 665.18 5154.35 684.72 5154.35 684.62 5154.35 623.28 5154.35 533.46"/>
      </g>
    </g>
    <polygon class="cls-3" points="5118.22 702.81 5105.33 684.72 5089.8 665.18 5089.8 665.08 5089.8 632.96 5089.8 513.92 5118.22 551.65 5118.22 641.47 5118.22 702.81"/>
  </g>
  <g>
    <g>
      <polygon class="cls-4" points="5257.84 231.04 5257.84 423.19 5189.95 272.13 5257.84 231.04"/>
      <polygon class="cls-4" points="5189.95 272.13 5257.84 423.19 5189.95 464.29 5189.95 402.84 5189.95 272.13"/>
      <path class="cls-4" d="M5257.84,231.04l-67.89,41.09-135.76-41.09,67.88-40.69,135.77,40.69ZM5179.45,259.48l46.87-28.38-93.74-28.09-46.87,28.09,93.74,28.38Z"/>
      <polygon class="cls-4" points="5226.32 231.1 5179.45 259.48 5085.71 231.1 5132.58 203.01 5226.32 231.1"/>
      <polygon class="cls-4" points="5189.95 402.84 5189.95 464.29 5154.35 453.51 5154.35 392.17 5154.35 302.35 5089.8 282.81 5089.8 401.85 5089.8 433.97 5054.19 423.19 5054.19 231.04 5189.95 272.13 5189.95 402.84"/>
      <polygon class="cls-3" points="5154.35 453.51 5154.35 453.61 5089.8 434.07 5089.8 433.97 5089.8 401.85 5089.8 282.81 5154.35 302.35 5154.35 392.17 5154.35 453.51"/>
    </g>
    <g>
      <line class="cls-10" x1="5154.35" y1="453.51" x2="5189.95" y2="464.29"/>
      <line class="cls-10" x1="5054.19" y1="423.19" x2="5089.8" y2="433.97"/>
      <line class="cls-10" x1="5189.95" y1="464.29" x2="5257.84" y2="423.19"/>
      <line class="cls-10" x1="5189.95" y1="272.13" x2="5189.95" y2="402.84"/>
      <line class="cls-10" x1="5189.95" y1="464.29" x2="5189.95" y2="402.84"/>
      <line class="cls-10" x1="5257.84" y1="231.04" x2="5257.84" y2="423.19"/>
      <line class="cls-10" x1="5054.19" y1="231.04" x2="5054.19" y2="423.19"/>
      <polygon class="cls-10" points="5257.84 231.04 5122.07 190.35 5054.19 231.04 5189.95 272.13 5257.84 231.04"/>
      <polygon class="cls-10" points="5226.32 231.1 5132.58 203.01 5085.71 231.1 5179.45 259.48 5226.32 231.1"/>
      <polygon class="cls-10" points="5154.35 453.51 5154.35 392.17 5154.35 302.35 5089.8 282.81 5089.8 401.85 5089.8 433.97 5089.8 434.07 5154.35 453.61 5154.35 453.51"/>
    </g>
  </g>
  <line class="cls-5" x1="5647.35" y1="421.54" x2="5647.35" y2="627.3"/>
</svg>