<?xml version="1.0" encoding="UTF-8"?>
<svg id="Layer_1" data-name="Layer 1" xmlns="http://www.w3.org/2000/svg" viewBox="0 0 561.31 674.72">
  <defs>
    <style>
      .cls-1 {
        fill: none;
      }

      .cls-1, .cls-2 {
        stroke: #585858;
        stroke-linejoin: bevel;
        stroke-width: 2px;
      }

      .cls-2 {
        fill: #fff;
      }
    </style>
  </defs>
  <path class="cls-2" d="M187.44.96v.02L1,112.73v191.4h.02s-.02.02-.02.02v256.74l372.87,112.87,186.44-111.75V112.73L187.44.96Z"/>
  <polygon class="cls-2" points="543.65 316.04 192.99 210.93 192.99 19.04 543.65 124.16 543.65 316.04"/>
  <polygon class="cls-2" points="192.99 210.93 17.65 316.03 17.65 124.16 192.99 19.06 192.99 210.93"/>
  <polygon class="cls-1" points="192.99 440.7 17.65 545.79 17.65 316.03 192.99 210.93 192.99 440.7"/>
  <polygon class="cls-1" points="368.32 651.95 17.65 545.79 192.99 440.7 543.65 546.85 368.32 651.95"/>
  <polygon class="cls-2" points="17.65 341.09 17.65 322.63 17.65 316.03 368.32 422.18 543.65 316.03 543.65 322.63 543.65 341.09 368.32 447.25 17.65 341.09"/>
  <polygon class="cls-2" points="17.65 316.03 192.99 210.93 543.65 316.03 368.32 422.18 17.65 316.03"/>
  <line class="cls-1" x1="543.65" y1="341.09" x2="543.65" y2="546.85"/>
</svg>