<?xml version="1.0" encoding="UTF-8"?>
<svg id="Layer_1" data-name="Layer 1" xmlns="http://www.w3.org/2000/svg" viewBox="0 0 205.65 275.85">
  <defs>
    <style>
      .cls-1 {
        fill: #e58d23;
      }

      .cls-2 {
        fill: #fff;
      }

      .cls-3 {
        fill: none;
        stroke: #585858;
        stroke-linejoin: bevel;
        stroke-width: 2px;
      }
    </style>
  </defs>
  <g>
    <polygon class="cls-2" points="204.65 41.65 204.65 233.8 136.76 82.74 204.65 41.65"/>
    <polygon class="cls-2" points="136.76 82.74 204.65 233.8 136.76 274.9 136.76 213.45 136.76 82.74"/>
    <path class="cls-2" d="M204.65,41.65l-67.89,41.09L1,41.65,68.88.96l135.77,40.69ZM126.26,70.09l46.87-28.38L79.39,13.62l-46.87,28.09,93.74,28.38Z"/>
    <polygon class="cls-2" points="173.13 41.71 126.26 70.09 32.52 41.71 79.39 13.62 173.13 41.71"/>
    <polygon class="cls-2" points="136.76 213.45 136.76 274.9 101.16 264.12 101.16 202.78 101.16 112.96 36.61 93.42 36.61 212.46 36.61 244.58 1 233.8 1 41.65 136.76 82.74 136.76 213.45"/>
    <polygon class="cls-1" points="101.16 264.12 101.16 264.22 36.61 244.68 36.61 244.58 36.61 212.46 36.61 93.42 101.16 112.96 101.16 202.78 101.16 264.12"/>
  </g>
  <g>
    <line class="cls-3" x1="101.16" y1="264.12" x2="136.76" y2="274.9"/>
    <line class="cls-3" x1="1" y1="233.8" x2="36.61" y2="244.58"/>
    <line class="cls-3" x1="136.76" y1="274.9" x2="204.65" y2="233.8"/>
    <line class="cls-3" x1="136.76" y1="82.74" x2="136.76" y2="213.45"/>
    <line class="cls-3" x1="136.76" y1="274.9" x2="136.76" y2="213.45"/>
    <line class="cls-3" x1="204.65" y1="41.65" x2="204.65" y2="233.8"/>
    <line class="cls-3" x1="1" y1="41.65" x2="1" y2="233.8"/>
    <polygon class="cls-3" points="204.65 41.65 68.88 .96 1 41.65 136.76 82.74 204.65 41.65"/>
    <polygon class="cls-3" points="173.13 41.71 79.39 13.62 32.52 41.71 126.26 70.09 173.13 41.71"/>
    <polygon class="cls-3" points="101.16 264.12 101.16 202.78 101.16 112.96 36.61 93.42 36.61 212.46 36.61 244.58 36.61 244.68 101.16 264.22 101.16 264.12"/>
  </g>
</svg>