<?xml version="1.0" encoding="UTF-8"?>
<svg id="Layer_1" data-name="Layer 1" xmlns="http://www.w3.org/2000/svg" viewBox="0 0 561.31 674.72">
  <defs>
    <style>
      .cls-1 {
        fill: none;
      }

      .cls-1, .cls-2 {
        stroke: #585858;
        stroke-linejoin: bevel;
        stroke-width: 2px;
      }

      .cls-2 {
        fill: #fff;
      }
    </style>
  </defs>
  <path class="cls-2" d="M187.44.96v.02L1,112.73v191.4h.02s-.02.02-.02.02v256.74l372.87,112.87,186.44-111.75V112.73L187.44.96Z"/>
  <polyline class="cls-2" points="17.65 316.03 17.65 124.16 192.99 19.06"/>
  <polyline class="cls-1" points="192.99 440.7 17.65 545.79 17.65 316.03"/>
  <polygon class="cls-1" points="368.32 651.95 17.65 545.79 192.99 440.7 543.65 546.85 368.32 651.95"/>
  <polyline class="cls-1" points="192.99 19.04 543.65 124.16 543.65 316.04 543.65 341.09 543.65 546.85"/>
  <g>
    <g>
      <polygon class="cls-2" points="319.13 592.93 319.13 580.59 319.13 578.17 400.18 603.39 464.25 564.6 464.25 567.01 464.25 579.35 400.18 618.14 319.13 592.93"/>
      <polygon class="cls-2" points="319.13 578.17 383.21 539.77 464.25 564.6 400.18 603.39 319.13 578.17"/>
    </g>
    <g>
      <polygon class="cls-2" points="338.98 566.04 338.98 553.7 338.98 551.29 420.03 576.5 484.1 537.71 484.1 540.13 484.1 552.46 420.03 591.26 338.98 566.04"/>
      <polygon class="cls-2" points="338.98 551.29 403.06 512.88 484.1 537.71 420.03 576.5 338.98 551.29"/>
    </g>
    <g>
      <polygon class="cls-2" points="358.84 539.15 358.84 526.81 358.84 524.4 439.88 549.62 503.95 510.83 503.95 513.24 503.95 525.58 439.88 564.37 358.84 539.15"/>
      <polygon class="cls-2" points="358.84 524.4 422.91 485.99 503.95 510.83 439.88 549.62 358.84 524.4"/>
    </g>
    <g>
      <polygon class="cls-2" points="378.69 512.26 378.69 499.93 378.69 497.51 459.73 522.73 523.8 483.94 523.8 486.35 523.8 498.69 459.73 537.48 378.69 512.26"/>
      <polygon class="cls-2" points="378.69 497.51 442.76 459.11 523.8 483.94 459.73 522.73 378.69 497.51"/>
    </g>
    <g>
      <polygon class="cls-2" points="398.54 485.38 398.54 473.04 398.54 470.63 479.58 495.84 543.65 457.05 543.65 459.46 543.65 471.8 479.58 510.59 398.54 485.38"/>
      <polygon class="cls-2" points="398.54 470.63 462.61 432.22 543.65 457.05 479.58 495.84 398.54 470.63"/>
    </g>
    <g>
      <polygon class="cls-2" points="317.85 444.62 317.85 432.28 317.85 429.86 398.89 455.08 462.96 416.29 462.96 418.7 462.96 431.04 398.89 469.83 317.85 444.62"/>
      <polygon class="cls-2" points="317.85 429.86 381.92 391.46 462.96 416.29 398.89 455.08 317.85 429.86"/>
    </g>
    <g>
      <polygon class="cls-2" points="296.16 422 296.16 409.66 296.16 407.25 377.21 432.46 441.28 393.67 441.28 396.09 441.28 408.42 377.21 447.22 296.16 422"/>
      <polygon class="cls-2" points="296.16 407.25 360.24 368.84 441.28 393.67 377.21 432.46 296.16 407.25"/>
    </g>
    <g>
      <polygon class="cls-2" points="274.48 399.38 274.48 387.04 274.48 384.63 355.52 409.85 419.6 371.06 419.6 373.47 419.6 385.81 355.52 424.6 274.48 399.38"/>
      <polygon class="cls-2" points="274.48 384.63 338.55 346.22 419.6 371.06 355.52 409.85 274.48 384.63"/>
    </g>
    <g>
      <polygon class="cls-2" points="252.8 376.76 252.8 364.42 252.8 362.01 333.84 387.23 397.91 348.44 397.91 350.85 397.91 363.19 333.84 401.98 252.8 376.76"/>
      <polygon class="cls-2" points="252.8 362.01 316.87 323.61 397.91 348.44 333.84 387.23 252.8 362.01"/>
    </g>
  </g>
  <polygon class="cls-2" points="17.65 401.76 17.65 390.62 17.65 386.63 229.19 450.67 334.96 386.63 334.96 390.62 334.96 401.76 229.19 465.79 17.65 401.76"/>
  <polygon class="cls-2" points="17.65 386.63 123.42 323.23 334.96 386.63 229.19 450.67 17.65 386.63"/>
</svg>