<?xml version="1.0" encoding="UTF-8"?>
<svg id="Layer_1" data-name="Layer 1" xmlns="http://www.w3.org/2000/svg" viewBox="0 0 561.31 674.72">
  <defs>
    <style>
      .cls-1 {
        fill: none;
      }

      .cls-1, .cls-2 {
        stroke: #585858;
        stroke-linejoin: bevel;
        stroke-width: 2px;
      }

      .cls-2 {
        fill: #fff;
      }
    </style>
  </defs>
  <path class="cls-2" d="M187.44.96v.02L1,112.73v191.4h.02s-.02.02-.02.02v256.74l372.87,112.87,186.44-111.75V112.73L187.44.96Z"/>
  <polyline class="cls-1" points="543.65 546.85 368.32 651.95 17.65 545.79 17.65 124.16 192.99 19.06"/>
  <polyline class="cls-1" points="192.99 19.04 543.65 124.16 543.65 316.04 543.65 341.09 543.65 546.85"/>
  <g>
    <polygon class="cls-2" points="210.48 240.94 70.13 325.09 70.13 253.66 210.48 169.52 210.48 240.94"/>
    <polygon class="cls-2" points="491.18 255.08 210.48 169.52 210.48 240.94 491.18 326.51 491.18 255.08"/>
  </g>
  <polygon class="cls-2" points="17.65 306.42 70.13 325.09 70.13 253.66 17.65 234.99 17.65 306.42"/>
  <polygon class="cls-2" points="543.65 296.29 491.18 326.51 491.18 255.08 543.65 224.86 543.65 296.29"/>
  <polygon class="cls-2" points="543.65 283.27 491.18 313.49 491.18 242.06 543.65 211.84 543.65 283.27"/>
  <g>
    <polygon class="cls-2" points="210.48 227.92 70.13 312.07 70.13 240.64 210.48 156.49 210.48 227.92"/>
    <polygon class="cls-2" points="491.18 242.06 210.48 156.49 210.48 227.92 491.18 313.49 491.18 242.06"/>
  </g>
  <polygon class="cls-2" points="17.65 293.4 70.13 312.07 70.13 240.64 17.65 221.97 17.65 293.4"/>
  <polygon class="cls-1" points="368.3 651.42 17.63 545.27 192.96 440.17 543.63 546.32 368.3 651.42"/>
  <line class="cls-1" x1="192.96" y1="440.17" x2="192.96" y2="251.43"/>
</svg>