<?xml version="1.0" encoding="UTF-8"?>
<svg id="Layer_1" data-name="Layer 1" xmlns="http://www.w3.org/2000/svg" viewBox="0 0 561.31 674.72">
  <defs>
    <style>
      .cls-1, .cls-2 {
        fill: none;
      }

      .cls-2, .cls-3 {
        stroke: #585858;
        stroke-linejoin: bevel;
        stroke-width: 2px;
      }

      .cls-3 {
        fill: #fff;
      }
    </style>
  </defs>
  <line class="cls-2" x1="543.65" y1="341.09" x2="543.65" y2="546.85"/>
  <g>
    <path class="cls-3" d="M187.44.96v.02L1,112.73v191.4h.02s-.02.02-.02.02v256.74l372.87,112.87,186.44-111.75V112.73L187.44.96Z"/>
    <polygon class="cls-3" points="543.65 316.04 192.99 210.93 192.99 19.04 543.65 124.16 543.65 316.04"/>
    <polygon class="cls-3" points="192.99 210.93 17.65 316.03 17.65 124.16 192.99 19.06 192.99 210.93"/>
    <polygon class="cls-2" points="192.99 440.7 17.65 545.79 17.65 316.03 192.99 210.93 192.99 440.7"/>
    <polygon class="cls-2" points="368.32 651.95 17.65 545.79 192.99 440.7 543.65 546.85 368.32 651.95"/>
    <polygon class="cls-3" points="17.65 341.09 17.65 322.63 17.65 316.03 368.32 422.18 543.65 316.03 543.65 322.63 543.65 341.09 368.32 447.25 17.65 341.09"/>
    <polygon class="cls-3" points="17.65 316.03 192.99 210.93 543.65 316.03 368.32 422.18 17.65 316.03"/>
    <g>
      <g>
        <line class="cls-1" x1="354.81" y1="320.08" x2="422.7" y2="278.99"/>
        <path class="cls-1" d="M422.7,278.99l-67.89,41.09-135.76-41.09,67.88-40.69,135.77,40.69ZM344.31,307.43l46.87-28.38-93.74-28.09-46.87,28.09,93.74,28.38Z"/>
        <polygon class="cls-1" points="391.18 279.05 344.31 307.43 250.57 279.05 297.44 250.96 391.18 279.05"/>
      </g>
      <polygon class="cls-2" points="422.7 278.99 286.93 238.3 219.05 278.99 354.81 320.08 422.7 278.99"/>
    </g>
    <g>
      <g>
        <line class="cls-1" x1="354.81" y1="332.74" x2="422.7" y2="291.65"/>
        <path class="cls-1" d="M422.7,291.65l-67.89,41.09-135.76-41.09,67.88-40.69,135.77,40.69ZM344.31,320.09l46.87-28.38-93.74-28.09-46.87,28.09,93.74,28.38Z"/>
      </g>
      <polyline class="cls-2" points="408.71 287.45 286.93 250.96 233.08 283.23"/>
    </g>
    <line class="cls-2" x1="286.93" y1="250.96" x2="286.93" y2="238.3"/>
  </g>
</svg>