<?xml version="1.0" encoding="UTF-8"?>
<svg id="Layer_1" data-name="Layer 1" xmlns="http://www.w3.org/2000/svg" viewBox="0 0 205.65 320.21">
  <defs>
    <style>
      .cls-1 {
        fill: #e58d23;
      }

      .cls-2 {
        fill: #fff;
      }

      .cls-3 {
        fill: none;
        stroke: #585858;
        stroke-linejoin: bevel;
        stroke-width: 2px;
      }
    </style>
  </defs>
  <g>
    <g>
      <polygon class="cls-2" points="136.76 82.74 204.65 271.71 136.76 312.81 136.76 251.36 136.76 82.74"/>
      <polygon class="cls-2" points="136.76 251.36 136.76 312.81 101.16 302.03 101.16 240.69 101.16 150.87 36.61 131.33 36.61 250.37 36.61 282.49 1 271.71 1 41.65 136.76 82.74 136.76 251.36"/>
      <polygon class="cls-2" points="204.65 41.65 204.65 271.71 136.76 82.74 204.65 41.65"/>
      <path class="cls-2" d="M204.65,41.65l-67.89,41.09L1,41.65,68.88.96l135.77,40.69ZM126.26,70.09l46.87-28.38L79.39,13.62l-46.87,28.09,93.74,28.38Z"/>
      <polygon class="cls-2" points="173.13 41.71 126.26 70.09 32.52 41.71 79.39 13.62 173.13 41.71"/>
      <polygon class="cls-2" points="101.16 302.03 101.16 302.13 36.61 282.59 36.61 282.49 36.61 250.37 36.61 131.33 101.16 150.87 101.16 240.69 101.16 302.03"/>
    </g>
    <g>
      <line class="cls-3" x1="101.16" y1="302.03" x2="136.76" y2="312.81"/>
      <line class="cls-3" x1="1" y1="271.71" x2="36.61" y2="282.49"/>
      <line class="cls-3" x1="136.76" y1="312.81" x2="204.65" y2="271.71"/>
      <line class="cls-3" x1="136.76" y1="82.74" x2="136.76" y2="251.36"/>
      <line class="cls-3" x1="136.76" y1="312.81" x2="136.76" y2="251.36"/>
      <line class="cls-3" x1="204.65" y1="41.65" x2="204.65" y2="271.71"/>
      <line class="cls-3" x1="1" y1="41.65" x2="1" y2="271.71"/>
      <polygon class="cls-3" points="204.65 41.65 68.88 .96 1 41.65 136.76 82.74 204.65 41.65"/>
      <polyline class="cls-3" points="1 80.89 136.76 121.98 204.65 80.89"/>
      <polygon class="cls-3" points="101.16 150.87 36.61 131.33 36.61 250.37 36.61 282.49 36.61 282.59 101.16 302.13 101.16 302.03 101.16 240.69 101.16 150.87"/>
    </g>
  </g>
  <polygon class="cls-1" points="65.03 320.21 52.14 302.13 36.61 282.59 36.61 282.49 36.61 250.37 36.61 131.33 65.03 169.05 65.03 258.87 65.03 320.21"/>
</svg>